<svg width="24" height="24" viewBox="0 0 24 24" fill="none" xmlns="http://www.w3.org/2000/svg">
<path d="M12.0002 8.19672C12.4144 8.19672 12.7502 8.5325 12.7502 8.94672V15.8031C12.7502 16.2174 12.4144 16.5531 12.0002 16.5531C11.586 16.5531 11.2502 16.2174 11.2502 15.8031V8.94672C11.2502 8.5325 11.586 8.19672 12.0002 8.19672Z" fill="#D1C29D"/>
<path d="M12.0002 17.25C12.4144 17.25 12.7502 17.5858 12.7502 18V18.1064C12.7502 18.5206 12.4144 18.8564 12.0002 18.8564C11.586 18.8564 11.2502 18.5206 11.2502 18.1064V18C11.2502 17.5858 11.586 17.25 12.0002 17.25Z" fill="#D1C29D"/>
<path fill-rule="evenodd" clip-rule="evenodd" d="M20.2502 22.5H3.75018C2.05161 22.5 0.965556 20.6899 1.76488 19.1912L10.0149 3.72243C10.8619 2.13419 13.1384 2.13419 13.9855 3.72243L22.2355 19.1912C23.0348 20.6899 21.9487 22.5 20.2502 22.5ZM20.9119 19.8971C21.1784 20.3966 20.8164 21 20.2502 21H3.75018C3.18399 21 2.82197 20.3966 3.08841 19.8971L11.3384 4.42831C11.6208 3.8989 12.3796 3.8989 12.6619 4.42831L20.9119 19.8971Z" fill="#D1C29D"/>
</svg>
