<svg width="24" height="24" viewBox="0 0 24 24" fill="none" xmlns="http://www.w3.org/2000/svg">
<path d="M12 5.94672C12.4142 5.94672 12.75 6.2825 12.75 6.69672V13.5531C12.75 13.9674 12.4142 14.3031 12 14.3031C11.5858 14.3031 11.25 13.9674 11.25 13.5531V6.69672C11.25 6.2825 11.5858 5.94672 12 5.94672Z" fill="white"/>
<path d="M12.75 15.75C12.75 15.3358 12.4142 15 12 15C11.5858 15 11.25 15.3358 11.25 15.75V15.8564C11.25 16.2706 11.5858 16.6064 12 16.6064C12.4142 16.6064 12.75 16.2706 12.75 15.8564V15.75Z" fill="white"/>
<path fill-rule="evenodd" clip-rule="evenodd" d="M12 22.5C17.799 22.5 22.5 17.799 22.5 12C22.5 6.20101 17.799 1.5 12 1.5C6.20101 1.5 1.5 6.20101 1.5 12C1.5 17.799 6.20101 22.5 12 22.5ZM12 21C16.9706 21 21 16.9706 21 12C21 7.02944 16.9706 3 12 3C7.02944 3 3 7.02944 3 12C3 16.9706 7.02944 21 12 21Z" fill="white"/>
</svg>
