<svg width="32" height="32" viewBox="0 0 32 32" fill="none" xmlns="http://www.w3.org/2000/svg">
<path fill-rule="evenodd" clip-rule="evenodd" d="M10 2C10.5523 2 11 2.44772 11 3V6H21V3C21 2.44772 21.4477 2 22 2C22.5523 2 23 2.44772 23 3V9C23 9.55228 22.5523 10 22 10C21.4477 10 21 9.55228 21 9V8H11V9C11 9.55228 10.5523 10 10 10C9.44772 10 9 9.55228 9 9V8H5C4.44771 8 4 8.44771 4 9V13.6H28V11C28 10.4477 28.4477 10 29 10C29.5523 10 30 10.4477 30 11V27C30 28.6569 28.6569 30 27 30H5C3.34315 30 2 28.6569 2 27V9C2 7.34314 3.34315 6 5 6H9V3C9 2.44772 9.44772 2 10 2ZM28 15.6H4V27C4 27.5523 4.44772 28 5 28H27C27.5523 28 28 27.5523 28 27V15.6Z" fill="#D1C29D"/>
<path d="M30 4.5C30 5.88071 28.8807 7 27.5 7C26.1193 7 25 5.88071 25 4.5C25 3.11929 26.1193 2 27.5 2C28.8807 2 30 3.11929 30 4.5Z" fill="#D1C29D"/>
</svg>
