<svg width="34" height="34" viewBox="0 0 34 34" fill="none" xmlns="http://www.w3.org/2000/svg">
<g clip-path="url(#clip0_706_3880)">
<path d="M27.6279 25.6401C27.4119 25.2833 26.613 24.1943 25.048 22.6456C23.4717 21.084 22.2809 20.066 21.9309 19.8133C21.9001 19.7909 21.8638 19.7774 21.8258 19.7742C21.7879 19.771 21.7498 19.7781 21.7157 19.7949C20.9904 20.1478 19.7536 20.8164 19.6872 20.8526C19.2585 21.0863 19.2585 21.0863 18.9822 20.9264C18.4965 20.6442 17.0576 19.4383 15.9454 17.7214C14.8333 16.0045 14.2809 14.15 14.2206 13.5921C14.1859 13.2738 14.1859 13.2738 14.5749 12.9774C14.6349 12.9315 15.7493 12.0737 16.3666 11.5552C16.3958 11.5308 16.4179 11.4989 16.4303 11.463C16.4428 11.427 16.4452 11.3883 16.4374 11.3511C16.3489 10.9281 15.9032 9.42666 15.1177 7.3515C14.3377 5.29207 13.6689 4.1195 13.4308 3.77705C13.409 3.7455 13.3791 3.72041 13.3442 3.70444C13.3093 3.68846 13.2708 3.68219 13.2327 3.68629C12.1171 3.82259 11.0171 4.06524 9.94771 4.41094C8.9142 4.75014 7.91266 5.17991 6.95473 5.69525C6.92128 5.71331 6.89337 5.74014 6.87401 5.77286C6.85464 5.80559 6.84455 5.84296 6.84481 5.88098C6.84586 6.42576 6.91794 8.71435 7.93584 12.0795C8.97425 15.5139 9.81195 17.3385 11.7704 20.3428C13.7288 23.3471 15.0896 24.9357 17.8079 27.2819C20.4681 29.5805 22.5305 30.578 23.0269 30.7993C23.0616 30.8149 23.1 30.8209 23.1378 30.8165C23.1756 30.8121 23.2116 30.7976 23.2418 30.7745C24.1021 30.109 24.9019 29.3688 25.6319 28.5625C26.3826 27.7261 27.0517 26.82 27.63 25.8563C27.649 25.8234 27.6588 25.7859 27.6584 25.7479C27.6581 25.7099 27.6475 25.6727 27.6279 25.6401Z" fill="#3EA83A"/>
</g>
<defs>
<clipPath id="clip0_706_3880">
<rect width="28" height="28" fill="white" transform="translate(6.2168 0.394531) rotate(12)"/>
</clipPath>
</defs>
</svg>
