<svg width="32" height="32" viewBox="0 0 32 32" fill="none" xmlns="http://www.w3.org/2000/svg">
<path fill-rule="evenodd" clip-rule="evenodd" d="M27.532 25.1337C27.7776 24.6267 27.9153 24.0576 27.9153 23.4563C27.9153 21.3285 26.1904 19.6035 24.0625 19.6035C21.9346 19.6035 20.2097 21.3285 20.2097 23.4563C20.2097 24.0578 20.3475 24.6271 20.5933 25.1343L20.2931 27.3371C20.0234 29.3167 22.1977 30.7026 23.8784 29.6224C23.9906 29.5502 24.1347 29.5502 24.247 29.6224C25.9277 30.7026 28.102 29.3167 27.8323 27.3371L27.532 25.1337ZM22.3687 26.9179L22.2748 27.6071C22.2355 27.8954 22.5522 28.0973 22.7969 27.94C23.568 27.4443 24.5574 27.4443 25.3284 27.94C25.5732 28.0973 25.8899 27.8954 25.8506 27.6071L25.7566 26.9177C25.2453 27.1684 24.6704 27.3092 24.0625 27.3092C23.4548 27.3092 22.8799 27.1685 22.3687 26.9179ZM24.0625 25.3092C25.0858 25.3092 25.9153 24.4796 25.9153 23.4563C25.9153 22.4331 25.0858 21.6035 24.0625 21.6035C23.0392 21.6035 22.2097 22.4331 22.2097 23.4563C22.2097 24.4796 23.0392 25.3092 24.0625 25.3092Z" fill="white"/>
<path d="M8.16146 1.60352H23.8385C24.3657 1.6035 24.8205 1.60348 25.195 1.63409C25.5904 1.66639 25.9836 1.7377 26.362 1.9305C26.9265 2.21812 27.3854 2.67706 27.673 3.24155C27.8658 3.61993 27.9371 4.01314 27.9694 4.40849C28 4.78306 28 5.23781 28 5.76495V16.6035C28 17.1558 27.5523 17.6035 27 17.6035C26.4477 17.6035 26 17.1558 26 16.6035V5.80352C26 5.22697 25.9992 4.85469 25.9761 4.57135C25.9539 4.29969 25.9162 4.19897 25.891 4.14953C25.7951 3.96137 25.6422 3.80838 25.454 3.71251C25.4045 3.68732 25.3038 3.64964 25.0322 3.62745C24.7488 3.6043 24.3766 3.60352 23.8 3.60352H8.2C7.62345 3.60352 7.25118 3.6043 6.96784 3.62745C6.69617 3.64964 6.59546 3.68732 6.54601 3.71251C6.35785 3.80838 6.20487 3.96137 6.109 4.14953C6.0838 4.19897 6.04612 4.29969 6.02393 4.57135C6.00078 4.85469 6 5.22697 6 5.80352V25.4035C6 25.9801 6.00078 26.3523 6.02393 26.6357C6.04612 26.9073 6.0838 27.0081 6.109 27.0575C6.20487 27.2457 6.35785 27.3987 6.54601 27.4945C6.59545 27.5197 6.69617 27.5574 6.96784 27.5796C7.25117 27.6027 7.62345 27.6035 8.2 27.6035H16.4231C16.9754 27.6035 17.4231 28.0512 17.4231 28.6035C17.4231 29.1558 16.9754 29.6035 16.4231 29.6035H8.16144C7.6343 29.6035 7.17954 29.6036 6.80497 29.5729C6.40963 29.5406 6.01641 29.4693 5.63803 29.2765C5.07354 28.9889 4.6146 28.53 4.32698 27.9655C4.13419 27.5871 4.06287 27.1939 4.03057 26.7985C3.99997 26.424 3.99998 25.9692 4 25.4421V5.76498C3.99998 5.23783 3.99997 4.78306 4.03057 4.40849C4.06287 4.01315 4.13419 3.61993 4.32698 3.24155C4.6146 2.67706 5.07354 2.21812 5.63803 1.9305C6.01641 1.7377 6.40963 1.66639 6.80497 1.63409C7.17952 1.60348 7.63435 1.6035 8.16146 1.60352Z" fill="white"/>
<path d="M9 17.6035C9 17.0512 9.44772 16.6035 10 16.6035H16C16.5523 16.6035 17 17.0512 17 17.6035C17 18.1558 16.5523 18.6035 16 18.6035H10C9.44772 18.6035 9 18.1558 9 17.6035Z" fill="white"/>
<path d="M10 10.6035C9.44772 10.6035 9 11.0512 9 11.6035C9 12.1558 9.44772 12.6035 10 12.6035H22C22.5523 12.6035 23 12.1558 23 11.6035C23 11.0512 22.5523 10.6035 22 10.6035H10Z" fill="white"/>
</svg>
