<svg width="42" height="42" viewBox="0 0 42 42" fill="none" xmlns="http://www.w3.org/2000/svg">
<path d="M2.625 6.5625C2.625 4.38788 4.38788 2.625 6.5625 2.625H30.1875C32.3621 2.625 34.125 4.38788 34.125 6.5625V7.875C34.125 8.59987 33.5374 9.1875 32.8125 9.1875C32.0876 9.1875 31.5 8.59987 31.5 7.875V6.5625C31.5 5.83763 30.9124 5.25 30.1875 5.25H6.5625C5.83763 5.25 5.25 5.83763 5.25 6.5625V21C5.25 21.7249 5.83763 22.3125 6.5625 22.3125H6.92708C7.65196 22.3125 8.23958 22.9001 8.23958 23.625C8.23958 24.3499 7.65196 24.9375 6.92708 24.9375H6.5625C4.38788 24.9375 2.625 23.1746 2.625 21V6.5625Z" fill="white"/>
<path d="M30.8437 26.25C31.9311 26.25 32.8125 25.3686 32.8125 24.2812C32.8125 23.1939 31.9311 22.3125 30.8437 22.3125C29.7564 22.3125 28.875 23.1939 28.875 24.2812C28.875 25.3686 29.7564 26.25 30.8437 26.25Z" fill="white"/>
<path d="M26.25 24.2812C26.25 25.3686 25.3686 26.25 24.2812 26.25C23.1939 26.25 22.3125 25.3686 22.3125 24.2812C22.3125 23.1939 23.1939 22.3125 24.2812 22.3125C25.3686 22.3125 26.25 23.1939 26.25 24.2812Z" fill="white"/>
<path d="M19.6875 24.2812C19.6875 25.3686 18.8061 26.25 17.7187 26.25C16.6314 26.25 15.75 25.3686 15.75 24.2812C15.75 23.1939 16.6314 22.3125 17.7187 22.3125C18.8061 22.3125 19.6875 23.1939 19.6875 24.2812Z" fill="white"/>
<path fill-rule="evenodd" clip-rule="evenodd" d="M13.8518 11.8125C13.5391 11.8124 13.1657 11.8122 12.8367 11.8391C12.4555 11.8702 11.9095 11.9502 11.3374 12.2417C10.5965 12.6192 9.99416 13.2215 9.61666 13.9624C9.32516 14.5345 9.24524 15.0805 9.2141 15.4617C9.18722 15.7907 9.18736 16.1641 9.18748 16.4768V30.992C9.18736 31.3047 9.18722 31.6781 9.2141 32.0071C9.24524 32.3883 9.32516 32.9342 9.61666 33.5063C9.99416 34.2472 10.5965 34.8496 11.3374 35.2271C11.9095 35.5186 12.4555 35.5985 12.8367 35.6297C13.1657 35.6565 13.5391 35.6564 13.8518 35.6563L29.1368 35.6562C29.9158 35.6562 29.9982 35.6652 30.0585 35.6756C30.1575 35.6929 30.2542 35.7214 30.3467 35.7607C30.403 35.7846 30.4771 35.8218 31.1314 36.2446L33.7549 37.94C33.9713 38.0801 34.2633 38.269 34.5333 38.4104C34.8036 38.5519 35.4635 38.8778 36.3221 38.8179C37.2727 38.7516 38.1474 38.2753 38.719 37.5129C39.2353 36.8243 39.3198 36.0932 39.3476 35.7893C39.3755 35.4859 39.3752 35.1381 39.375 34.8803L39.375 16.4768C39.3751 16.1641 39.3753 15.7907 39.3484 15.4617C39.3173 15.0805 39.2373 14.5345 38.9458 13.9624C38.5683 13.2215 37.966 12.6192 37.2251 12.2417C36.653 11.9502 36.107 11.8702 35.7258 11.8391C35.3968 11.8122 35.0234 11.8124 34.7107 11.8125H13.8518ZM32.5561 34.0399L35.1301 35.7032C35.6575 36.0441 35.9213 36.2145 36.1394 36.1992C36.3295 36.186 36.5045 36.0907 36.6188 35.9383C36.75 35.7633 36.75 35.4493 36.75 34.8213V16.5375C36.75 15.8024 36.75 15.4349 36.6069 15.1541C36.4811 14.9072 36.2803 14.7064 36.0334 14.5806C35.7526 14.4375 35.3851 14.4375 34.65 14.4375H13.9125C13.1774 14.4375 12.8099 14.4375 12.5291 14.5806C12.2822 14.7064 12.0814 14.9072 11.9556 15.1541C11.8125 15.4349 11.8125 15.8024 11.8125 16.5375V30.9312C11.8125 31.6663 11.8125 32.0339 11.9556 32.3146C12.0814 32.5616 12.2822 32.7624 12.5291 32.8882C12.8099 33.0312 13.1774 33.0312 13.9125 33.0312H29.1368C29.8278 33.0312 30.1734 33.0312 30.508 33.0894C30.8051 33.1411 31.0953 33.2267 31.3728 33.3445C31.6854 33.4773 31.9757 33.6648 32.5561 34.0399Z" fill="white"/>
</svg>
