<svg width="32" height="32" viewBox="0 0 32 32" fill="none" xmlns="http://www.w3.org/2000/svg">
<path d="M9 18C9 17.4477 9.44772 17 10 17H17C17.5523 17 18 17.4477 18 18C18 18.5523 17.5523 19 17 19H10C9.44772 19 9 18.5523 9 18Z" fill="white"/>
<path d="M10 11C9.44772 11 9 11.4477 9 12C9 12.5523 9.44772 13 10 13H22C22.5523 13 23 12.5523 23 12C23 11.4477 22.5523 11 22 11H10Z" fill="white"/>
<path fill-rule="evenodd" clip-rule="evenodd" d="M17.4829 29.0827C16.5634 29.6055 15.4366 29.6055 14.5171 29.0827L14.4829 29.0633C13.5634 28.5404 12.4366 28.5404 11.5171 29.0633L11.3111 29.1804C10.4982 29.6427 9.50185 29.6427 8.68889 29.1804L7.86163 28.71C7.34865 28.4183 6.70581 28.4926 6.27297 28.8937C5.40678 29.6964 4 29.0821 4 27.9012L4 5C4 3.34315 5.34315 2 7 2L25 2C26.6569 2 28 3.34315 28 5L28 27.9012C28 29.0821 26.5932 29.6964 25.727 28.8937C25.2942 28.4927 24.6514 28.4183 24.1384 28.71L23.3111 29.1804C22.4982 29.6427 21.5019 29.6427 20.6889 29.1804L20.4829 29.0633C19.5634 28.5404 18.4366 28.5404 17.5171 29.0633L17.4829 29.0827ZM16.5285 27.3247C18.061 26.4533 19.9391 26.4533 21.4715 27.3247L21.6775 27.4418C21.8775 27.5555 22.1225 27.5555 22.3225 27.4418L23.1498 26.9714C24.0385 26.4661 25.0845 26.4041 26 26.7522L26 5C26 4.44772 25.5523 4 25 4L7 4C6.44772 4 6 4.44772 6 5L6 26.7522C6.9155 26.4041 7.96152 26.4661 8.85023 26.9714L9.6775 27.4418C9.87747 27.5555 10.1225 27.5555 10.3225 27.4418L10.5285 27.3247C12.061 26.4533 13.9391 26.4533 15.4715 27.3247L15.5057 27.3441C15.8122 27.5184 16.1878 27.5184 16.4943 27.3441L16.5285 27.3247Z" fill="white"/>
</svg>
