<svg width="24" height="24" viewBox="0 0 24 24" fill="none" xmlns="http://www.w3.org/2000/svg">
<path fill-rule="evenodd" clip-rule="evenodd" d="M17.7274 7.22727C17.7274 10.3904 15.1632 12.9545 12.0001 12.9545C8.83701 12.9545 6.27283 10.3904 6.27283 7.22727C6.27283 4.06419 8.83701 1.5 12.0001 1.5C15.1632 1.5 17.7274 4.06419 17.7274 7.22727ZM16.2274 7.22727C16.2274 9.56193 14.3348 11.4545 12.0001 11.4545C9.66544 11.4545 7.77283 9.56193 7.77283 7.22727C7.77283 4.89261 9.66544 3 12.0001 3C14.3348 3 16.2274 4.89261 16.2274 7.22727Z" fill="white"/>
<path d="M4.5 19.5C4.5 18.6716 5.17157 18 6 18H12H18C18.8284 18 19.5 18.6716 19.5 19.5V21.75C19.5 22.1642 19.8358 22.5 20.25 22.5C20.6642 22.5 21 22.1642 21 21.75V19.5C21 17.8431 19.6569 16.5 18 16.5H6C4.34315 16.5 3 17.8431 3 19.5V21.75C3 22.1642 3.33579 22.5 3.75 22.5C4.16421 22.5 4.5 22.1642 4.5 21.75V19.5Z" fill="white"/>
</svg>
