<svg width="32" height="32" viewBox="0 0 32 32" fill="none" xmlns="http://www.w3.org/2000/svg">
<path d="M5 5C3.34315 5 2 6.34315 2 8V19C2 19.5523 2.44772 20 3 20C3.55228 20 4 19.5523 4 19V8C4 7.44772 4.44772 7 5 7H27C27.5523 7 28 7.44772 28 8V24C28 24.5523 27.5523 25 27 25H16C15.4477 25 15 25.4477 15 26C15 26.5523 15.4477 27 16 27H27C28.6569 27 30 25.6569 30 24V8C30 6.34315 28.6569 5 27 5H5Z" fill="white"/>
<path fill-rule="evenodd" clip-rule="evenodd" d="M20 16C20 18.2091 18.2091 20 16 20C13.7909 20 12 18.2091 12 16C12 13.7909 13.7909 12 16 12C18.2091 12 20 13.7909 20 16ZM18 16C18 17.1046 17.1046 18 16 18C14.8954 18 14 17.1046 14 16C14 14.8954 14.8954 14 16 14C17.1046 14 18 14.8954 18 16Z" fill="white"/>
<path d="M9 16C9 16.5523 8.55228 17 8 17C7.44772 17 7 16.5523 7 16C7 15.4477 7.44772 15 8 15C8.55228 15 9 15.4477 9 16Z" fill="white"/>
<path d="M24 17C24.5523 17 25 16.5523 25 16C25 15.4477 24.5523 15 24 15C23.4477 15 23 15.4477 23 16C23 16.5523 23.4477 17 24 17Z" fill="white"/>
<path d="M7.59627 24.2929C7.98679 24.6835 7.98679 25.3166 7.59627 25.7072L6.35886 26.9446L7.59627 28.182C7.98679 28.5725 7.98679 29.2057 7.59627 29.5962C7.20574 29.9867 6.57258 29.9867 6.18205 29.5962L4.94464 28.3588L3.70718 29.5962C3.31665 29.9868 2.68349 29.9868 2.29297 29.5962C1.90244 29.2057 1.90244 28.5726 2.29297 28.182L3.53043 26.9446L2.29297 25.7071C1.90244 25.3166 1.90244 24.6834 2.29297 24.2929C2.68349 23.9024 3.31666 23.9024 3.70718 24.2929L4.94464 25.5304L6.18205 24.2929C6.57258 23.9024 7.20574 23.9024 7.59627 24.2929Z" fill="white"/>
</svg>
