<svg width="24" height="24" viewBox="0 0 24 24" fill="none" xmlns="http://www.w3.org/2000/svg">
<path fill-rule="evenodd" clip-rule="evenodd" d="M14.625 14.876C15.8874 14.876 17.0466 14.4525 17.9743 13.7391L18.0099 13.7116C18.3314 13.4643 18.6253 13.2383 18.8581 13.0802C18.978 12.9988 19.1356 12.8979 19.3089 12.8167C19.4351 12.7576 19.8191 12.5837 20.3057 12.6507C20.9796 12.7436 21.5423 13.185 21.793 13.8175C21.9546 14.2255 21.9121 14.5934 21.8835 14.7645C21.8513 14.9575 21.7943 15.132 21.7492 15.2576C21.6638 15.4953 21.5338 15.7902 21.4016 16.0899L21.3827 16.1326C19.7954 19.7328 16.1934 22.2508 12 22.2508C6.33908 22.2508 1.75 17.6617 1.75 12.0008C1.75 7.80711 4.26831 4.20492 7.86896 2.61772C7.88322 2.61143 7.89747 2.60515 7.91171 2.59887C8.21146 2.46669 8.50626 2.3367 8.74392 2.25135C8.86959 2.20622 9.04412 2.14925 9.23709 2.11707C9.4082 2.08853 9.77608 2.04601 10.1841 2.20769C10.8165 2.45834 11.2579 3.0211 11.3507 3.69508C11.4177 4.18162 11.2438 4.56561 11.1847 4.6918C11.1035 4.86516 11.0025 5.02273 10.9211 5.14256C10.763 5.37543 10.537 5.66924 10.2897 5.99068L10.2622 6.02639C9.54858 6.95411 9.125 8.11346 9.125 9.376C9.125 12.4136 11.5874 14.876 14.625 14.876ZM8.79972 5.49316C8.05764 6.60426 7.625 7.9396 7.625 9.376C7.625 13.242 10.759 16.376 14.625 16.376C16.0612 16.376 17.3964 15.9435 18.5074 15.2016C18.6071 15.135 18.7051 15.0659 18.8012 14.9943C18.8305 14.9725 18.8597 14.9504 18.8887 14.9281C18.9199 14.9041 18.9503 14.8807 18.9801 14.8578C19.624 14.3628 19.9524 14.1162 20.101 14.1367C20.239 14.1557 20.3471 14.2405 20.3984 14.37C20.4562 14.5159 20.3076 14.8531 20.0102 15.5274C19.9951 15.5618 19.9797 15.5961 19.9641 15.6303C19.8984 15.7742 19.829 15.9159 19.7558 16.0555C19.7271 16.1103 19.6978 16.1648 19.668 16.219C18.1787 18.9206 15.3031 20.7508 12 20.7508C7.16751 20.7508 3.25 16.8333 3.25 12.0008C3.25 8.69748 5.08048 5.82171 7.78245 4.33247C7.83659 4.30263 7.89107 4.27335 7.9459 4.24463C8.08547 4.17153 8.22725 4.10209 8.37113 4.03642C8.4053 4.02083 8.43959 4.00544 8.474 3.99028C9.14837 3.69301 9.48555 3.54437 9.63141 3.60218C9.76096 3.65352 9.84574 3.7616 9.86475 3.89965C9.8852 4.04821 9.63857 4.37657 9.14355 5.02045C9.12065 5.05023 9.09722 5.08069 9.07327 5.11183C9.05095 5.14084 9.02886 5.17003 9.00699 5.1994C8.93546 5.29545 8.86634 5.3934 8.79972 5.49316Z" fill="white"/>
</svg>
