<svg width="24" height="24" viewBox="0 0 24 24" fill="none" xmlns="http://www.w3.org/2000/svg">
<path d="M6.12109 1.5L17.8789 1.5C18.2742 1.49999 18.6154 1.49998 18.8963 1.52293C19.1928 1.54715 19.4877 1.60064 19.7715 1.74524C20.1948 1.96095 20.5391 2.30516 20.7548 2.72853C20.8994 3.01231 20.9528 3.30722 20.9771 3.60373C21 3.88466 21 4.22572 21 4.62108L21 13.5C21 13.9142 20.6642 14.25 20.25 14.25C19.8358 14.25 19.5 13.9142 19.5 13.5L19.5 4.65C19.5 4.21759 19.4994 3.93838 19.4821 3.72588C19.4654 3.52213 19.4371 3.44659 19.4183 3.40951C19.3464 3.26839 19.2316 3.15365 19.0905 3.08175C19.0534 3.06285 18.9779 3.03459 18.7741 3.01795C18.5616 3.00059 18.2824 3 17.85 3H6.15C5.71759 3 5.43838 3.00059 5.22588 3.01795C5.02213 3.03459 4.94659 3.06285 4.90951 3.08175C4.76839 3.15365 4.65365 3.26839 4.58175 3.40951C4.56285 3.44659 4.53459 3.52213 4.51795 3.72588C4.50058 3.93838 4.5 4.21759 4.5 4.65V19.35C4.5 19.7824 4.50058 20.0616 4.51795 20.2741C4.53459 20.4779 4.56285 20.5534 4.58175 20.5905C4.65365 20.7316 4.76839 20.8463 4.90951 20.9183C4.94659 20.9371 5.02213 20.9654 5.22588 20.9821C5.43838 20.9994 5.71759 21 6.15 21H12.3173C12.7315 21 13.0673 21.3358 13.0673 21.75C13.0673 22.1642 12.7315 22.5 12.3173 22.5H6.12108C5.72572 22.5 5.38466 22.5 5.10373 22.4771C4.80722 22.4528 4.51231 22.3994 4.22852 22.2548C3.80516 22.0391 3.46095 21.6948 3.24524 21.2715C3.10064 20.9877 3.04715 20.6928 3.02293 20.3963C2.99998 20.1153 2.99999 19.7743 3 19.3789V4.62109C2.99999 4.22573 2.99998 3.88466 3.02293 3.60373C3.04715 3.30722 3.10064 3.01231 3.24524 2.72852C3.46095 2.30516 3.80516 1.96095 4.22852 1.74524C4.51231 1.60064 4.80722 1.54715 5.10373 1.52293C5.38466 1.49998 5.72573 1.49999 6.12109 1.5Z" fill="white"/>
<path d="M6.75 13.5C6.75 13.0858 7.08579 12.75 7.5 12.75H12C12.4142 12.75 12.75 13.0858 12.75 13.5C12.75 13.9142 12.4142 14.25 12 14.25H7.5C7.08579 14.25 6.75 13.9142 6.75 13.5Z" fill="white"/>
<path d="M7.5 8.25C7.08579 8.25 6.75 8.58579 6.75 9C6.75 9.41421 7.08579 9.75 7.5 9.75H16.5C16.9142 9.75 17.25 9.41421 17.25 9C17.25 8.58579 16.9142 8.25 16.5 8.25H7.5Z" fill="white"/>
<path d="M17.4704 17.4697C17.7633 17.1768 18.2382 17.1768 18.5311 17.4697L19.8754 18.814L21.2197 17.4697C21.5126 17.1768 21.9874 17.1768 22.2803 17.4697C22.5732 17.7626 22.5732 18.2374 22.2803 18.5303L20.936 19.8746L22.2811 21.2197C22.574 21.5126 22.574 21.9874 22.2811 22.2803C21.9882 22.5732 21.5133 22.5732 21.2204 22.2803L19.8754 20.9353L18.5303 22.2803C18.2374 22.5732 17.7626 22.5732 17.4697 22.2803C17.1768 21.9874 17.1768 21.5126 17.4697 21.2197L18.8147 19.8746L17.4704 18.5303C17.1775 18.2374 17.1775 17.7626 17.4704 17.4697Z" fill="white"/>
</svg>
