<svg width="24" height="24" viewBox="0 0 24 24" fill="none" xmlns="http://www.w3.org/2000/svg">
<path d="M7.22534 16.5C6.81113 16.5 6.47534 16.8358 6.47534 17.25C6.47534 17.6642 6.81113 18 7.22534 18H10.6357C11.05 18 11.3857 17.6642 11.3857 17.25C11.3857 16.8358 11.05 16.5 10.6357 16.5H7.22534Z" fill="white"/>
<path d="M6.47534 13.5C6.47534 13.0858 6.81113 12.75 7.22534 12.75L14.0461 12.75C14.4603 12.75 14.7961 13.0858 14.7961 13.5C14.7961 13.9142 14.4603 14.25 14.0461 14.25L7.22534 14.25C6.81113 14.25 6.47534 13.9142 6.47534 13.5Z" fill="white"/>
<path fill-rule="evenodd" clip-rule="evenodd" d="M3 5.1C3 3.83988 3 3.20982 3.24524 2.72852C3.46095 2.30516 3.80516 1.96095 4.22852 1.74524C4.70982 1.5 5.33988 1.5 6.6 1.5H12.7253C13.2492 1.5 13.5112 1.5 13.759 1.55675C13.9788 1.60708 14.1898 1.69016 14.3849 1.80322C14.605 1.93071 14.7966 2.10932 15.1798 2.46654L19.8546 6.82368C20.2767 7.2171 20.4877 7.41382 20.6389 7.64749C20.773 7.85462 20.8721 8.08238 20.9322 8.32166C21 8.59161 21 8.88012 21 9.45714V18.9C21 20.1601 21 20.7902 20.7548 21.2715C20.539 21.6948 20.1948 22.0391 19.7715 22.2548C19.2902 22.5 18.6601 22.5 17.4 22.5H6.6C5.33988 22.5 4.70982 22.5 4.22852 22.2548C3.80516 22.0391 3.46095 21.6948 3.24524 21.2715C3 20.7902 3 20.1601 3 18.9V5.1ZM19.5 9.45714V18.9C19.5 19.5548 19.4988 19.9557 19.4743 20.2556C19.4629 20.3954 19.4486 20.4799 19.4365 20.5313C19.4307 20.5557 19.4259 20.5707 19.423 20.5788C19.4202 20.5866 19.4183 20.5905 19.4183 20.5905C19.3463 20.7316 19.2316 20.8463 19.0905 20.9183C19.0905 20.9183 19.0866 20.9202 19.0788 20.923C19.0707 20.9259 19.0557 20.9307 19.0312 20.9365C18.9799 20.9486 18.8954 20.9629 18.7556 20.9743C18.4557 20.9988 18.0548 21 17.4 21H6.6C5.94519 21 5.54429 20.9988 5.24435 20.9743C5.10463 20.9629 5.02009 20.9486 4.96875 20.9365C4.94433 20.9307 4.92931 20.9259 4.92118 20.923C4.91338 20.9202 4.90951 20.9183 4.90951 20.9183C4.76839 20.8463 4.65365 20.7316 4.58175 20.5905C4.58175 20.5905 4.57977 20.5866 4.57699 20.5788C4.57409 20.5707 4.56927 20.5557 4.56352 20.5313C4.55143 20.4799 4.53709 20.3954 4.52567 20.2556C4.50117 19.9557 4.5 19.5548 4.5 18.9V5.1C4.5 4.44519 4.50117 4.04429 4.52567 3.74435C4.53709 3.60463 4.55143 3.52009 4.56352 3.46875C4.56927 3.44433 4.57409 3.42931 4.57699 3.42118C4.57977 3.41338 4.58175 3.40951 4.58175 3.40951C4.65365 3.26839 4.76839 3.15365 4.90951 3.08175C4.90951 3.08175 4.91338 3.07977 4.92118 3.07699C4.92931 3.07409 4.94433 3.06927 4.96875 3.06352C5.02009 3.05143 5.10463 3.03709 5.24435 3.02567C5.54429 3.00117 5.94519 3 6.6 3H12.6823V6C12.6823 7.65685 14.0254 9 15.6823 9H19.4972C19.499 9.1071 19.5 9.25382 19.5 9.45714ZM18.3802 7.5H15.6823C14.8538 7.5 14.1823 6.82843 14.1823 6V3.58725L18.3802 7.5Z" fill="white"/>
</svg>
