<svg width="32" height="32" viewBox="0 0 32 32" fill="none" xmlns="http://www.w3.org/2000/svg">
<path d="M23.8385 2C24.3657 1.99998 24.8205 1.99997 25.195 2.03057C25.5904 2.06287 25.9836 2.13419 26.362 2.32698C26.9265 2.6146 27.3854 3.07354 27.673 3.63803C27.8658 4.01641 27.9371 4.40963 27.9694 4.80498C28 5.17955 28 5.63431 28 6.16146V25.8385C28 26.3657 28 26.8205 27.9694 27.195C27.9371 27.5904 27.8658 27.9836 27.673 28.362C27.3854 28.9265 26.9265 29.3854 26.362 29.673C25.9836 29.8658 25.5904 29.9371 25.195 29.9694C24.8205 30 24.3657 30 23.8386 30H15.5769C15.0246 30 14.5769 29.5523 14.5769 29C14.5769 28.4477 15.0246 28 15.5769 28H23.8C24.3766 28 24.7488 27.9992 25.0322 27.9761C25.3038 27.9539 25.4045 27.9162 25.454 27.891C25.6422 27.7951 25.7951 27.6422 25.891 27.454C25.9162 27.4045 25.9539 27.3038 25.9761 27.0322C25.9992 26.7488 26 26.3766 26 25.8V6.2C26 5.62345 25.9992 5.25118 25.9761 4.96784C25.9539 4.69618 25.9162 4.59546 25.891 4.54601C25.7951 4.35785 25.6422 4.20487 25.454 4.109C25.4045 4.0838 25.3038 4.04613 25.0322 4.02393C24.7488 4.00078 24.3766 4 23.8 4H8.2C7.62345 4 7.25117 4.00078 6.96784 4.02393C6.69617 4.04613 6.59545 4.0838 6.54601 4.109C6.35785 4.20487 6.20487 4.35785 6.109 4.54601C6.0838 4.59545 6.04612 4.69618 6.02393 4.96784C6.00078 5.25118 6 5.62345 6 6.2V18C6 18.5523 5.55228 19 5 19C4.44772 19 4 18.5523 4 18V6.16144C3.99998 5.6343 3.99997 5.17954 4.03057 4.80497C4.06287 4.40963 4.13419 4.01641 4.32698 3.63803C4.6146 3.07354 5.07354 2.6146 5.63803 2.32698C6.01641 2.13419 6.40963 2.06287 6.80497 2.03057C7.17953 1.99997 7.63428 1.99998 8.16142 2H23.8385Z" fill="white"/>
<path d="M14.2001 14.5L17.0162 12.0053H21.9985L20.0023 13.7742H17.8412L14.2301 17L10 13.2523L11.3832 12H14.2018L12.793 13.2523L14.2001 14.5Z" fill="white"/>
<path d="M15.2147 16.5917L14.8103 16.9462H17.64L18.8283 15.8894H20.0021L22 14.1212H17.9982L15.2147 16.5917Z" fill="white"/>
<path d="M5.23178 22.3598C5.58534 21.9355 6.21591 21.8782 6.64018 22.2318L10.2402 25.2318C10.4682 25.4218 10.6 25.7032 10.6 26C10.6 26.2968 10.4682 26.5782 10.2402 26.7682L6.64018 29.7682C6.21591 30.1218 5.58534 30.0645 5.23178 29.6402C4.87821 29.2159 4.93554 28.5853 5.35982 28.2318L6.83795 27H3C2.44772 27 2 26.5523 2 26C2 25.4477 2.44772 25 3 25H6.83795L5.35982 23.7682C4.93554 23.4147 4.87821 22.7841 5.23178 22.3598Z" fill="white"/>
</svg>
