<svg width="24" height="24" viewBox="0 0 24 24" fill="none" xmlns="http://www.w3.org/2000/svg">
<path d="M3.75 1.5C2.50736 1.5 1.5 2.50736 1.5 3.75V20.25C1.5 21.4926 2.50736 22.5 3.75 22.5H20.25C21.4926 22.5 22.5 21.4926 22.5 20.25V13.5955C22.5 13.1812 22.1642 12.8455 21.75 12.8455C21.3358 12.8455 21 13.1812 21 13.5955V20.25C21 20.6642 20.6642 21 20.25 21H3.75C3.33579 21 3 20.6642 3 20.25V3.75C3 3.33579 3.33579 3 3.75 3H12C12.4142 3 12.75 2.66421 12.75 2.25C12.75 1.83579 12.4142 1.5 12 1.5H3.75Z" fill="white"/>
<path fill-rule="evenodd" clip-rule="evenodd" d="M9.05097 18.3692L7.1644 18.6328C6.04682 18.7889 5.1057 17.8023 5.31456 16.6933L5.64955 14.9146C5.76263 14.3142 6.05635 13.7626 6.49142 13.3336L17.3647 2.61269C18.2526 1.73718 19.6833 1.75081 20.5544 2.64308L21.6278 3.74262C22.4953 4.6312 22.4789 6.05459 21.5911 6.92291L10.7335 17.5427C10.2753 17.9909 9.6857 18.2805 9.05097 18.3692L8.84339 16.8836C9.16076 16.8393 9.45558 16.6944 9.68467 16.4704L10.6388 15.5371L8.55766 13.4028L7.54457 14.4017C7.32704 14.6162 7.18018 14.892 7.12364 15.1922L6.78865 16.9709C6.76966 17.0717 6.85522 17.1614 6.95682 17.1472L8.84339 16.8836L9.05097 18.3692ZM11.7112 14.4883L9.62579 12.3496L18.4178 3.68081C18.7138 3.38897 19.1907 3.39352 19.481 3.69094L20.5545 4.79048C20.8437 5.08667 20.8382 5.56113 20.5423 5.85058L11.7112 14.4883Z" fill="white"/>
</svg>
