<svg width="24" height="24" viewBox="0 0 24 24" fill="none" xmlns="http://www.w3.org/2000/svg">
<path fill-rule="evenodd" clip-rule="evenodd" d="M21.2343 8.06986C21.2343 9.24192 20.8317 10.4012 20.0636 11.2854C19.2897 12.1763 18.191 12.7262 16.9924 12.7262C15.7938 12.7262 14.6951 12.1763 13.9212 11.2854C13.1532 10.4012 12.7506 9.24193 12.7506 8.06986C12.7506 6.95471 13.2684 5.82136 13.7392 4.98378C14.2405 4.09211 14.8406 3.2767 15.2643 2.73812C16.1579 1.60244 17.8565 1.63077 18.7225 2.76643C19.1416 3.31606 19.7392 4.14781 20.239 5.03708C20.7004 5.858 21.2343 6.99148 21.2343 8.06986ZM18.9312 10.3017C19.4454 9.70979 19.7343 8.90697 19.7343 8.06986C19.7343 6.75376 18.3281 4.72288 17.5298 3.67598C17.2533 3.31337 16.7252 3.30728 16.4432 3.66565C15.6429 4.68279 14.2506 6.6556 14.2506 8.06986C14.2506 8.90697 14.5395 9.70979 15.0536 10.3017C15.3869 10.6853 15.797 10.96 16.2424 11.1058V10.422L15.3912 9.54375C15.1013 9.24465 15.0998 8.76351 15.3878 8.4691C15.6184 8.23339 15.9647 8.18882 16.2424 8.3339V8.06819C16.2424 7.65398 16.5782 7.31819 16.9924 7.31819C17.4066 7.31819 17.7424 7.65398 17.7424 8.06819V8.33391C18.0201 8.18883 18.3664 8.2334 18.597 8.46911C18.885 8.76353 18.8835 9.24467 18.5936 9.54377L17.7424 10.422V11.1058C18.1878 10.96 18.598 10.6853 18.9312 10.3017Z" fill="white"/>
<path d="M2.36328 10.5515C1.94907 10.5515 1.61328 10.8873 1.61328 11.3015C1.61328 11.7157 1.94907 12.0515 2.36328 12.0515H6.46709C6.6989 12.0515 6.92755 12.1052 7.13511 12.2084L11.8582 14.5576C12.2534 14.7542 12.3891 15.2512 12.1487 15.6213C11.9637 15.9061 11.6084 16.028 11.2875 15.9169L8.27069 14.8719C7.87929 14.7363 7.45209 14.9437 7.31651 15.3351C7.18094 15.7265 7.38832 16.1537 7.77972 16.2893L10.7965 17.3343C11.769 17.6711 12.846 17.3015 13.4066 16.4384C13.539 16.2346 13.6337 16.0181 13.693 15.7966L19.5277 15.078C20.0731 15.0108 20.5995 15.3032 20.8308 15.8017C21.1435 16.4756 20.8114 17.2726 20.1127 17.5251L11.3933 20.6768C10.9525 20.8361 10.4626 20.7802 10.069 20.5257L6.41648 18.164C5.93115 17.8502 5.36549 17.6833 4.78754 17.6833H2.36328C1.94907 17.6833 1.61328 18.019 1.61328 18.4333C1.61328 18.8475 1.94907 19.1833 2.36328 19.1833H4.78754C5.07652 19.1833 5.35934 19.2667 5.60201 19.4236L9.25448 21.7853C10.0417 22.2943 11.0216 22.4061 11.9032 22.0875L20.6226 18.9358C22.1491 18.384 22.8746 16.6427 22.1915 15.1704C21.6862 14.0813 20.5359 13.4425 19.3443 13.5893L13.5709 14.3003C13.3673 13.8464 13.0112 13.4558 12.5262 13.2146L7.80311 10.8654C7.38801 10.6589 6.93071 10.5515 6.46709 10.5515H2.36328Z" fill="white"/>
</svg>
