<svg width="24" height="24" viewBox="0 0 24 24" fill="none" xmlns="http://www.w3.org/2000/svg">
<path fill-rule="evenodd" clip-rule="evenodd" d="M19.3503 8.25H4.65032C4.2179 8.25 3.9387 8.25058 3.72619 8.26795C3.52245 8.28459 3.44691 8.31285 3.40982 8.33175C3.2687 8.40365 3.15397 8.51839 3.08206 8.65951C3.06317 8.69659 3.03491 8.77213 3.01826 8.97588C3.0009 9.18838 3.00032 9.46758 3.00032 9.9V13.125C3.00032 13.5392 2.66453 13.875 2.25032 13.875C1.8361 13.875 1.50032 13.5392 1.50032 13.125V9.87107C1.5003 9.47572 1.50029 9.13465 1.52324 8.85373C1.54747 8.55722 1.60096 8.26231 1.74555 7.97852C1.96127 7.55516 2.30547 7.21095 2.72884 6.99523C3.01262 6.85064 3.30754 6.79715 3.60405 6.77293C3.88497 6.74997 4.22605 6.74999 4.62141 6.75L6.00032 6.75V3.3C6.00032 2.30589 6.8062 1.5 7.80032 1.5H16.2003C17.1944 1.5 18.0003 2.30589 18.0003 3.3V6.75L19.3792 6.75C19.7746 6.74999 20.1157 6.74997 20.3966 6.77293C20.6931 6.79715 20.988 6.85064 21.2718 6.99524C21.6952 7.21095 22.0394 7.55516 22.2551 7.97852C22.3997 8.26231 22.4532 8.55722 22.4774 8.85373C22.5003 9.13465 22.5003 9.47571 22.5003 9.87106V19.3789C22.5003 19.7743 22.5003 20.1154 22.4774 20.3963C22.4532 20.6928 22.3997 20.9877 22.2551 21.2715C22.0394 21.6948 21.6952 22.0391 21.2718 22.2548C20.988 22.3994 20.6931 22.4528 20.3966 22.4771C20.1157 22.5 19.7746 22.5 19.3792 22.5H12.0003C11.5861 22.5 11.2503 22.1642 11.2503 21.75C11.2503 21.3358 11.5861 21 12.0003 21H19.3503C19.7827 21 20.0619 20.9994 20.2744 20.9821C20.4782 20.9654 20.5537 20.9371 20.5908 20.9183C20.7319 20.8464 20.8467 20.7316 20.9186 20.5905C20.9375 20.5534 20.9657 20.4779 20.9824 20.2741C20.9997 20.0616 21.0003 19.7824 21.0003 19.35V9.9C21.0003 9.46758 20.9997 9.18838 20.9824 8.97588C20.9657 8.77213 20.9375 8.69659 20.9186 8.65951C20.8467 8.51839 20.7319 8.40365 20.5908 8.33175C20.5537 8.31285 20.4782 8.28459 20.2744 8.26795C20.0619 8.25058 19.7827 8.25 19.3503 8.25ZM7.50032 6.75H16.5003V3.3C16.5003 3.13431 16.366 3 16.2003 3H7.80032C7.63463 3 7.50032 3.13431 7.50032 3.3V6.75Z" fill="white"/>
<path d="M15.0003 10.125C15.4145 10.125 15.7503 10.4608 15.7503 10.875C15.7503 11.2892 15.4145 11.625 15.0003 11.625H9.00032C8.5861 11.625 8.25032 11.2892 8.25032 10.875C8.25032 10.4608 8.5861 10.125 9.00032 10.125H15.0003Z" fill="white"/>
<path fill-rule="evenodd" clip-rule="evenodd" d="M7.70261 16.3145L7.0298 16.3008L6.80885 15.6651C6.29521 14.1874 4.20543 14.1874 3.69179 15.6651L3.47084 16.3008L2.79803 16.3145C1.23395 16.3463 0.588172 18.3338 1.8348 19.279L2.37106 19.6855L2.17619 20.3296C1.72318 21.827 3.41384 23.0554 4.69794 22.1618L5.25032 21.7774L5.80269 22.1618C7.08679 23.0554 8.77746 21.827 8.32444 20.3296L8.12957 19.6855L8.66583 19.279C9.91246 18.3338 9.26668 16.3463 7.70261 16.3145ZM5.10863 16.1576C5.15533 16.0233 5.34531 16.0233 5.392 16.1576L5.92139 17.6806C5.94199 17.7398 5.99729 17.78 6.06002 17.7813L7.67204 17.8142C7.81423 17.8171 7.87294 17.9977 7.75961 18.0837L6.47476 19.0578C6.42477 19.0957 6.40364 19.1607 6.42181 19.2207L6.88871 20.764C6.92989 20.9001 6.7762 21.0118 6.65946 20.9306L5.33599 20.0096C5.2845 19.9738 5.21614 19.9738 5.16464 20.0096L3.84117 20.9306C3.72444 21.0118 3.57074 20.9001 3.61192 20.764L4.07882 19.2207C4.09699 19.1607 4.07587 19.0957 4.02587 19.0578L2.74102 18.0837C2.62769 17.9977 2.6864 17.8171 2.82859 17.8142L4.44062 17.7813C4.50334 17.78 4.55865 17.7398 4.57924 17.6806L5.10863 16.1576Z" fill="white"/>
</svg>
