<svg width="32" height="32" viewBox="0 0 32 32" fill="none" xmlns="http://www.w3.org/2000/svg">
<path fill-rule="evenodd" clip-rule="evenodd" d="M25.8 11H6.19998C5.62342 11 5.25115 11.0008 4.96781 11.0239C4.69615 11.0461 4.59543 11.0838 4.54598 11.109C4.35782 11.2049 4.20484 11.3578 4.10897 11.546C4.08378 11.5955 4.0461 11.6962 4.0239 11.9678C4.00075 12.2512 3.99997 12.6234 3.99997 13.2V17.5C3.99997 18.0523 3.55226 18.5 2.99997 18.5C2.44769 18.5 1.99997 18.0523 1.99997 17.5V13.1614C1.99996 12.6343 1.99994 12.1795 2.03054 11.805C2.06284 11.4096 2.13416 11.0164 2.32695 10.638C2.61457 10.0735 3.07352 9.6146 3.638 9.32698C4.01638 9.13419 4.4096 9.06287 4.80495 9.03057C5.17952 8.99997 5.63428 8.99998 6.16143 9L7.99997 9V4.4C7.99997 3.07452 9.07449 2 10.4 2H21.6C22.9255 2 24 3.07452 24 4.4V9L25.8385 9C26.3657 8.99998 26.8204 8.99997 27.195 9.03057C27.5903 9.06287 27.9836 9.13419 28.3619 9.32698C28.9264 9.6146 29.3854 10.0735 29.673 10.638C29.8658 11.0164 29.9371 11.4096 29.9694 11.805C30 12.1795 30 12.6343 30 13.1614V25.8385C30 26.3657 30 26.8205 29.9694 27.195C29.9371 27.5904 29.8658 27.9836 29.673 28.362C29.3854 28.9265 28.9264 29.3854 28.3619 29.673C27.9836 29.8658 27.5903 29.9371 27.195 29.9694C26.8204 30 26.3657 30 25.8385 30H16C15.4477 30 15 29.5523 15 29C15 28.4477 15.4477 28 16 28H25.8C26.3765 28 26.7488 27.9992 27.0321 27.9761C27.3038 27.9539 27.4045 27.9162 27.454 27.891C27.6421 27.7951 27.7951 27.6422 27.891 27.454C27.9162 27.4045 27.9539 27.3038 27.976 27.0322C27.9992 26.7488 28 26.3766 28 25.8V13.2C28 12.6234 27.9992 12.2512 27.976 11.9678C27.9539 11.6962 27.9162 11.5955 27.891 11.546C27.7951 11.3578 27.6421 11.2049 27.454 11.109C27.4045 11.0838 27.3038 11.0461 27.0321 11.0239C26.7488 11.0008 26.3765 11 25.8 11ZM9.99997 9H22V4.4C22 4.17909 21.8209 4 21.6 4H10.4C10.1791 4 9.99997 4.17909 9.99997 4.4V9Z" fill="white"/>
<path d="M20 13.5C20.5523 13.5 21 13.9477 21 14.5C21 15.0523 20.5523 15.5 20 15.5H12C11.4477 15.5 11 15.0523 11 14.5C11 13.9477 11.4477 13.5 12 13.5H20Z" fill="white"/>
<path fill-rule="evenodd" clip-rule="evenodd" d="M10.2697 21.7526L9.37261 21.7343L9.07801 20.8868C8.39316 18.9166 5.60679 18.9166 4.92194 20.8868L4.62734 21.7343L3.73025 21.7526C1.64482 21.7951 0.783782 24.4451 2.44596 25.7053L3.16096 26.2474L2.90114 27.1062C2.29712 29.1027 4.55134 30.7405 6.26347 29.5491L6.99997 29.0366L7.73647 29.5491C9.4486 30.7405 11.7028 29.1027 11.0988 27.1062L10.839 26.2474L11.554 25.7053C13.2162 24.4451 12.3551 21.7951 10.2697 21.7526ZM6.81106 21.5435C6.87332 21.3644 7.12663 21.3644 7.18889 21.5435L7.89474 23.5741C7.9222 23.6531 7.99594 23.7067 8.07957 23.7084L10.2289 23.7522C10.4185 23.7561 10.4968 23.997 10.3457 24.1115L8.63257 25.4103C8.56591 25.4609 8.53774 25.5476 8.56196 25.6276L9.1845 27.6853C9.23941 27.8668 9.03448 28.0157 8.87883 27.9074L7.11421 26.6795C7.04555 26.6317 6.9544 26.6317 6.88574 26.6795L5.12112 27.9074C4.96547 28.0157 4.76054 27.8668 4.81545 27.6853L5.43798 25.6276C5.46221 25.5476 5.43404 25.4609 5.36738 25.4103L3.65425 24.1115C3.50314 23.997 3.58142 23.7561 3.771 23.7522L5.92037 23.7084C6.00401 23.7067 6.07775 23.6531 6.10521 23.5741L6.81106 21.5435Z" fill="white"/>
</svg>
