<svg width="24" height="24" viewBox="0 0 24 24" fill="none" xmlns="http://www.w3.org/2000/svg">
<path fill-rule="evenodd" clip-rule="evenodd" d="M11.0027 2.281C12.137 1.31152 13.5419 1.32747 14.6226 1.87725C15.7071 1.32611 17.0951 1.32673 18.2271 2.26784C19.7252 3.5133 19.9008 5.64974 18.7532 7.12681C18.3952 7.58769 17.7546 8.21625 17.2117 8.72884C16.64 9.26855 16.0722 9.77629 15.7932 10.0235L15.7888 10.0273C15.7681 10.0459 15.6996 10.1069 15.6276 10.1612C15.5316 10.2335 15.3531 10.3545 15.0998 10.4301C14.7888 10.5229 14.4566 10.5229 14.1455 10.4301C13.8923 10.3545 13.7138 10.2335 13.6178 10.1612C13.5458 10.1069 13.4773 10.0459 13.4566 10.0274L13.4522 10.0235C13.1732 9.77629 12.6053 9.26855 12.0337 8.72884C11.4908 8.21625 10.8502 7.58769 10.4921 7.12681C9.33134 5.6327 9.55473 3.51848 11.0027 2.281ZM15.1518 3.29918C14.8949 3.45858 14.7665 3.53828 14.7049 3.55218L14.6981 3.55371C14.6602 3.56229 14.6412 3.56658 14.6222 3.56657C14.6033 3.56657 14.5843 3.56227 14.5464 3.55367L14.5396 3.55213C14.478 3.53821 14.3499 3.45857 14.0935 3.29929C13.4443 2.89592 12.6279 2.86519 11.9772 3.42129C11.1318 4.14386 11.0127 5.35195 11.6767 6.20653C12.2287 6.91706 13.8993 8.41561 14.4468 8.90064C14.5081 8.9549 14.5387 8.98203 14.5744 8.99269C14.6056 9.002 14.6397 9.002 14.6709 8.99269C14.7067 8.98203 14.7373 8.9549 14.7985 8.90064C15.3461 8.41561 17.0167 6.91706 17.5687 6.20653C18.2327 5.35195 18.1282 4.13626 17.2682 3.42129C16.6069 2.87152 15.7973 2.89857 15.1518 3.29918Z" fill="white"/>
<path d="M1.5 10.4997C1.5 10.0855 1.83579 9.74967 2.25 9.74967H5.9546C6.47105 9.74967 6.97875 9.883 7.42857 10.1367L11.7682 12.5847C12.2691 12.8673 12.6226 13.31 12.8009 13.8123L19.2024 12.9717C20.5066 12.8004 21.766 13.5156 22.2872 14.7233C22.948 16.2544 22.2057 18.028 20.6513 18.6321L11.9454 22.0151C11.0151 22.3766 9.96596 22.2517 9.14645 21.6821L5.51635 19.1586C5.26502 18.9839 4.96626 18.8903 4.66018 18.8903H2.25C1.83579 18.8903 1.5 18.5545 1.5 18.1403C1.5 17.7261 1.83579 17.3903 2.25 17.3903H4.66018C5.27235 17.3903 5.86986 17.5776 6.37252 17.927L10.0026 20.4504C10.4124 20.7353 10.937 20.7977 11.4021 20.6169L20.108 17.2339C20.87 16.9378 21.234 16.0683 20.91 15.3176C20.6545 14.7256 20.0371 14.375 19.3977 14.4589L12.8092 15.3241C12.7629 15.4583 12.7035 15.59 12.6303 15.7177C12.0655 16.7038 10.8631 17.1267 9.80545 16.7112L7.22576 15.6977C6.84023 15.5463 6.65048 15.111 6.80194 14.7254C6.95339 14.3399 7.38871 14.1502 7.77424 14.3016L10.3539 15.3151C10.7189 15.4584 11.1338 15.3125 11.3287 14.9723C11.5466 14.5918 11.4131 14.1066 11.0312 13.8912L6.69158 11.4432C6.46668 11.3163 6.21283 11.2497 5.9546 11.2497H2.25C1.83579 11.2497 1.5 10.9139 1.5 10.4997Z" fill="white"/>
</svg>
