<svg width="32" height="32" viewBox="0 0 32 32" fill="none" xmlns="http://www.w3.org/2000/svg">
<path fill-rule="evenodd" clip-rule="evenodd" d="M14.1864 5.30901C15.6856 3.80289 18.1007 3.7319 19.6858 5.14737L20.2124 5.61766C20.5789 5.94498 21.0531 6.12591 21.5446 6.12591H29C29.5523 6.12591 30 6.57362 30 7.12591C30 7.67819 29.5523 8.12591 29 8.12591H27V19.0003C27 19.1462 26.9688 19.2847 26.9127 19.4096H29C29.5523 19.4096 30 19.8574 30 20.4096C30 20.9619 29.5523 21.4096 29 21.4096H22.6136C22.496 21.5791 22.3642 21.7411 22.2184 21.8937L17.6281 26.6975C16.192 28.2004 13.8439 28.3528 12.2256 27.0481L6.19657 22.1875C5.841 21.9008 5.39803 21.7445 4.9413 21.7445H3C2.44772 21.7445 2 21.2968 2 20.7445C2 20.1922 2.44772 19.7445 3 19.7445H4.9413C4.96088 19.7445 4.98045 19.7447 5 19.7449V8.34915H3C2.44772 8.34915 2 7.90143 2 7.34915C2 6.79686 2.44772 6.34915 3 6.34915L13.1511 6.34915L14.1864 5.30901ZM25.0873 19.4096C25.0312 19.2847 25 19.1462 25 19.0003V8.12591H21.5446C20.5617 8.12591 19.6133 7.76406 18.8802 7.10941L18.3536 6.63912C17.5611 5.93139 16.3535 5.96688 15.6039 6.71994L11.6151 10.7274C11.3009 11.043 11.2137 11.5195 11.3958 11.9259C11.6321 12.4536 12.2433 12.7 12.7796 12.4839L15.6341 11.3332C17.5254 10.5708 19.6874 11.3532 20.6529 13.1493L22.8497 17.2365C23.2167 17.9192 23.3684 18.673 23.3167 19.4096H25.0873ZM7.45183 20.6305C7.29502 20.5041 7.1297 20.3903 6.95746 20.2898C6.98513 20.1982 7 20.101 7 20.0003V8.34915L11.1604 8.34915L10.1976 9.31644C9.29932 10.2189 9.05 11.5815 9.57049 12.7435C10.2463 14.2523 11.994 14.9569 13.5273 14.3388L16.3818 13.1882C17.3275 12.807 18.4085 13.1982 18.8912 14.0962L21.0881 18.1834C21.451 18.8586 21.3927 19.6728 20.9594 20.2851L17.9681 17.295C17.5754 16.9025 16.9431 16.9001 16.5557 17.2897C16.1683 17.6793 16.1725 18.3132 16.5651 18.7057L19.5998 21.7391L18.7602 22.6178L15.8361 19.6918C15.4472 19.3027 14.8145 19.3054 14.4229 19.6979C14.0312 20.0904 14.029 20.724 14.4178 21.1131L17.3726 24.0698L16.1821 25.3158C15.464 26.0672 14.29 26.1434 13.4809 25.4911L7.45183 20.6305Z" fill="white"/>
</svg>
