<svg width="32" height="32" viewBox="0 0 32 32" fill="none" xmlns="http://www.w3.org/2000/svg">
<path d="M13 22C12.4477 22 12 22.4477 12 23C12 23.5523 12.4477 24 13 24H19C19.5523 24 20 23.5523 20 23C20 22.4477 19.5523 22 19 22H13Z" fill="white"/>
<path fill-rule="evenodd" clip-rule="evenodd" d="M10.5 2C9.11929 2 8 3.11929 8 4.5V9.01934C8 9.8488 8.25786 10.6577 8.73788 11.3342L11.4525 15.1596C11.9444 15.8529 11.9444 16.7813 11.4525 17.4745L8.73788 21.3C8.25786 21.9764 8 22.7853 8 23.6148V27.5C8 28.8807 9.11929 30 10.5 30H21.5C22.8807 30 24 28.8807 24 27.5V23.6148C24 22.7853 23.7421 21.9764 23.2621 21.3L20.5475 17.4745C20.0556 16.7813 20.0556 15.8529 20.5475 15.1596L23.2621 11.3342C23.7421 10.6577 24 9.8488 24 9.01934V4.5C24 3.11929 22.8807 2 21.5 2H10.5ZM10 4.5C10 4.22386 10.2239 4 10.5 4H21.5C21.7761 4 22 4.22386 22 4.5V9.01934C22 9.43407 21.8711 9.83854 21.6311 10.1768L18.9165 14.0022C17.9326 15.3887 17.9326 17.2455 18.9165 18.6319L21.6311 22.4574C21.8711 22.7956 22 23.2001 22 23.6148V27.5C22 27.7761 21.7761 28 21.5 28H10.5C10.2239 28 10 27.7761 10 27.5V23.6148C10 23.2001 10.1289 22.7956 10.3689 22.4574L13.0835 18.6319C14.0674 17.2455 14.0674 15.3887 13.0835 14.0022L10.3689 10.1768C10.1289 9.83854 10 9.43407 10 9.01934V4.5Z" fill="white"/>
</svg>
