<svg width="27" height="27" viewBox="0 0 27 27" fill="none" xmlns="http://www.w3.org/2000/svg">
<path d="M13.4994 8.09863C10.5067 8.09863 8.09148 10.5139 8.09148 13.5065C8.09148 16.4992 10.5067 18.9145 13.4994 18.9145C16.4921 18.9145 18.9073 16.4992 18.9073 13.5065C18.9073 10.5139 16.4921 8.09863 13.4994 8.09863ZM13.4994 17.0213C11.564 17.0213 9.98465 15.4419 9.98465 13.5065C9.98465 11.5712 11.564 9.9918 13.4994 9.9918C15.4347 9.9918 17.0141 11.5712 17.0141 13.5065C17.0141 15.4419 15.4347 17.0213 13.4994 17.0213ZM19.1288 6.6168C18.4301 6.6168 17.8658 7.18106 17.8658 7.87979C17.8658 8.57852 18.4301 9.14277 19.1288 9.14277C19.8275 9.14277 20.3918 8.58115 20.3918 7.87979C20.392 7.71387 20.3595 7.54954 20.2961 7.39622C20.2327 7.24289 20.1396 7.10358 20.0223 6.98625C19.905 6.86893 19.7657 6.77591 19.6124 6.71251C19.459 6.64912 19.2947 6.61659 19.1288 6.6168ZM24.041 13.5065C24.041 12.0511 24.0542 10.6088 23.9724 9.15596C23.8907 7.46846 23.5057 5.9708 22.2718 4.73682C21.0351 3.5002 19.5401 3.11787 17.8526 3.03614C16.3971 2.9544 14.9549 2.96758 13.502 2.96758C12.0466 2.96758 10.6043 2.9544 9.15144 3.03614C7.46394 3.11787 5.96629 3.50283 4.7323 4.73682C3.49568 5.97344 3.11336 7.46846 3.03162 9.15596C2.94988 10.6114 2.96306 12.0537 2.96306 13.5065C2.96306 14.9594 2.94988 16.4043 3.03162 17.8571C3.11336 19.5446 3.49832 21.0423 4.7323 22.2763C5.96892 23.5129 7.46394 23.8952 9.15144 23.9769C10.6069 24.0587 12.0492 24.0455 13.502 24.0455C14.9575 24.0455 16.3998 24.0587 17.8526 23.9769C19.5401 23.8952 21.0378 23.5103 22.2718 22.2763C23.5084 21.0396 23.8907 19.5446 23.9724 17.8571C24.0568 16.4043 24.041 14.962 24.041 13.5065ZM21.7207 19.7239C21.5282 20.2038 21.2962 20.5624 20.9244 20.9315C20.5526 21.3033 20.1967 21.5353 19.7168 21.7278C18.3299 22.2789 15.0366 22.155 13.4994 22.155C11.9622 22.155 8.66629 22.2789 7.27937 21.7305C6.79949 21.538 6.4409 21.306 6.07176 20.9342C5.69998 20.5624 5.46795 20.2064 5.27547 19.7266C4.72703 18.337 4.85095 15.0437 4.85095 13.5065C4.85095 11.9693 4.72703 8.67344 5.27547 7.28653C5.46795 6.80664 5.69998 6.44805 6.07176 6.07891C6.44353 5.70977 6.79949 5.4751 7.27937 5.28262C8.66629 4.73418 11.9622 4.85811 13.4994 4.85811C15.0366 4.85811 18.3325 4.73418 19.7194 5.28262C20.1993 5.4751 20.5579 5.70713 20.927 6.07891C21.2988 6.45069 21.5308 6.80664 21.7233 7.28653C22.2718 8.67344 22.1478 11.9693 22.1478 13.5065C22.1478 15.0437 22.2718 18.337 21.7207 19.7239Z" fill="white"/>
</svg>
