<svg width="24" height="24" viewBox="0 0 24 24" fill="none" xmlns="http://www.w3.org/2000/svg">
<path fill-rule="evenodd" clip-rule="evenodd" d="M1.5 6.6C1.5 5.33988 1.5 4.70982 1.74524 4.22852C1.96095 3.80516 2.30516 3.46095 2.72852 3.24524C3.20982 3 3.83988 3 5.1 3H18.9C20.1601 3 20.7902 3 21.2715 3.24524C21.6948 3.46095 22.039 3.80516 22.2548 4.22852C22.5 4.70982 22.5 5.33988 22.5 6.6V17.4C22.5 18.6601 22.5 19.2902 22.2548 19.7715C22.039 20.1948 21.6948 20.539 21.2715 20.7548C20.7902 21 20.1601 21 18.9 21H5.1C3.83988 21 3.20982 21 2.72852 20.7548C2.30516 20.539 1.96095 20.1948 1.74524 19.7715C1.5 19.2902 1.5 18.6601 1.5 17.4V6.6ZM5.1 4.5H18.9C19.5548 4.5 19.9557 4.50117 20.2556 4.52567C20.3954 4.53709 20.4799 4.55143 20.5313 4.56352C20.5557 4.56927 20.5707 4.57409 20.5788 4.57699C20.5866 4.57977 20.5905 4.58175 20.5905 4.58175C20.7316 4.65365 20.8463 4.76839 20.9183 4.90951C20.9183 4.90951 20.9202 4.91338 20.923 4.92118C20.9259 4.92931 20.9307 4.94433 20.9365 4.96875C20.9486 5.02009 20.9629 5.10463 20.9743 5.24435C20.9988 5.54429 21 5.94519 21 6.6V17.4C21 18.0548 20.9988 18.4557 20.9743 18.7556C20.9629 18.8954 20.9486 18.9799 20.9365 19.0313C20.9307 19.0557 20.9259 19.0707 20.923 19.0788C20.9202 19.0866 20.9183 19.0905 20.9183 19.0905C20.8463 19.2316 20.7316 19.3463 20.5905 19.4183C20.5905 19.4183 20.5866 19.4202 20.5788 19.423C20.5707 19.4259 20.5557 19.4307 20.5313 19.4365C20.4799 19.4486 20.3954 19.4629 20.2556 19.4743C19.9557 19.4988 19.5548 19.5 18.9 19.5H5.1C4.83413 19.5 4.61013 19.4998 4.41774 19.4979L9.07625 14.0403L10.9265 15.7542C11.5601 16.3411 12.5571 16.273 13.1052 15.6055L17.8297 9.8509C18.0925 9.53076 18.046 9.05817 17.7259 8.79533C17.4058 8.5325 16.9332 8.57895 16.6703 8.8991L11.9458 14.6537L10.0956 12.9398C9.47031 12.3607 8.4887 12.4182 7.93536 13.0665L3.17955 18.6381C3.11531 18.7133 3.06856 18.7976 3.03888 18.886C3.03426 18.849 3.02978 18.8059 3.02567 18.7556C3.00117 18.4557 3 18.0548 3 17.4V6.6C3 5.94519 3.00117 5.54429 3.02567 5.24435C3.03709 5.10463 3.05143 5.02009 3.06352 4.96875C3.06927 4.94433 3.07409 4.92931 3.07699 4.92118C3.07977 4.91338 3.08175 4.90951 3.08175 4.90951C3.15365 4.76839 3.26839 4.65365 3.40951 4.58175C3.40951 4.58175 3.41338 4.57977 3.42118 4.57699C3.42931 4.57409 3.44433 4.56927 3.46875 4.56352C3.52009 4.55143 3.60463 4.53709 3.74435 4.52567C4.04429 4.50117 4.44519 4.5 5.1 4.5Z" fill="white"/>
</svg>
