<svg width="30" height="32" viewBox="0 0 30 32" fill="none" xmlns="http://www.w3.org/2000/svg">
<path d="M14.7056 4.37109C8.29632 4.37109 3.08057 9.58684 3.08057 15.9961C3.08057 22.4053 8.29632 27.6211 14.7056 27.6211C21.1148 27.6211 26.3306 22.4053 26.3306 15.9961C26.3306 9.58684 21.1148 4.37109 14.7056 4.37109ZM14.7056 6.30859C20.0676 6.30859 24.3931 10.6341 24.3931 15.9961C24.3948 18.3151 23.563 20.5574 22.0493 22.3143C20.5356 24.0711 18.4408 25.2253 16.1471 25.5664V18.821H18.9061L19.3391 16.0184H16.1471V14.4877C16.1471 13.3252 16.5297 12.2916 17.6176 12.2916H19.3662V9.84647C19.0591 9.80481 18.4091 9.71472 17.1807 9.71472C14.6155 9.71472 13.112 11.069 13.112 14.1555V16.0184H10.475V18.821H13.112V25.5422C10.8497 25.1698 8.79352 24.0052 7.3108 22.2565C5.82808 20.5078 5.01544 18.2888 5.01807 15.9961C5.01807 10.6341 9.34354 6.30859 14.7056 6.30859Z" fill="white"/>
</svg>
