<svg width="27" height="23" viewBox="0 0 27 23" fill="none" xmlns="http://www.w3.org/2000/svg">
<path d="M23.9049 0.402626C23.6083 0.424628 23.3171 0.494212 23.0426 0.60871H23.0389C22.7756 0.713138 21.5234 1.2399 19.6196 2.03836L12.7976 4.91151C7.90244 6.97234 3.09044 9.00176 3.09044 9.00176L3.14773 8.97958C3.14773 8.97958 2.81597 9.08863 2.46941 9.32613C2.25483 9.46175 2.07049 9.64012 1.92787 9.85012C1.75783 10.0996 1.62105 10.4813 1.67188 10.8759C1.75505 11.5431 2.18755 11.9433 2.49806 12.1642C2.81227 12.3878 3.11169 12.4922 3.11169 12.4922H3.11909L7.63167 14.0125C7.83405 14.6621 9.00679 18.5176 9.28865 19.4057C9.455 19.9362 9.61672 20.268 9.81911 20.5212C9.91584 20.6506 10.0326 20.7587 10.1694 20.8456C10.2404 20.8883 10.3169 20.9212 10.3967 20.9435L10.3505 20.9324C10.3644 20.9361 10.3754 20.9472 10.3856 20.9509C10.4226 20.9611 10.4475 20.9648 10.4947 20.9722C11.209 21.1884 11.7829 20.7448 11.7829 20.7448L11.8153 20.7189L14.4796 18.2931L18.945 21.7189L19.0467 21.7623C19.9773 22.1708 20.9199 21.9434 21.418 21.5424C21.9198 21.1385 22.1148 20.6219 22.1148 20.6219L22.1472 20.5387L25.5979 2.86084C25.6959 2.42465 25.7208 2.01618 25.6127 1.61972C25.5017 1.2182 25.2442 0.872921 24.8909 0.652144C24.5947 0.471937 24.2511 0.384998 23.9049 0.402626ZM23.8115 2.29712C23.8078 2.35534 23.8189 2.34887 23.793 2.46069V2.47085L20.3746 19.9648C20.3599 19.9898 20.3349 20.0443 20.2665 20.0988C20.1944 20.1561 20.1371 20.1922 19.8368 20.073L14.3751 15.8857L11.0759 18.8928L11.769 14.4662L20.6926 6.14894C21.0604 5.807 20.9375 5.73492 20.9375 5.73492C20.9633 5.31536 20.382 5.61201 20.382 5.61201L9.1297 12.5828L9.126 12.5643L3.73272 10.7484V10.7447L3.71885 10.7419L3.74658 10.7308L3.77615 10.716L3.8048 10.7059C3.8048 10.7059 8.6205 8.67646 13.5157 6.61563C15.9665 5.58336 18.4358 4.5437 20.3349 3.74155C21.4612 3.26747 22.5887 2.79615 23.7173 2.32761C23.793 2.29804 23.757 2.29712 23.8115 2.29712Z" fill="#184B50"/>
</svg>
