<svg width="24" height="24" viewBox="0 0 24 24" fill="none" xmlns="http://www.w3.org/2000/svg">
<path fill-rule="evenodd" clip-rule="evenodd" d="M5.10807 22.0924H16.7227C18.744 22.0924 20.4629 20.6177 20.7703 18.6199L21.7019 12.5644C22.0835 10.0837 20.1642 7.8465 17.6543 7.8465H15.2588V5.42414C15.2588 3.41762 13.6322 1.79102 11.6256 1.79102C10.7519 1.79102 9.96004 2.3056 9.60516 3.10407L6.72847 9.57664H5.10807C3.32411 9.57664 1.87793 11.0228 1.87793 12.8068V18.8623C1.87793 20.6462 3.32411 22.0924 5.10807 22.0924ZM7.87507 10.6695V20.5924H16.7227C18.0036 20.5924 19.0929 19.6578 19.2877 18.3918L20.2193 12.3363C20.4612 10.7643 19.2449 9.3465 17.6543 9.3465H14.6238C14.1461 9.3465 13.7588 8.95919 13.7588 8.48143V5.42414C13.7588 4.24605 12.8037 3.29102 11.6256 3.29102C11.3446 3.29102 11.09 3.4565 10.9759 3.71328L7.9316 10.5629C7.91509 10.6 7.89617 10.6356 7.87507 10.6695ZM6.37507 20.5924V11.0766H5.10807C4.15254 11.0766 3.37793 11.8512 3.37793 12.8068V18.8623C3.37793 19.8178 4.15254 20.5924 5.10807 20.5924H6.37507Z" fill="white"/>
</svg>
