<svg width="32" height="32" viewBox="0 0 32 32" fill="none" xmlns="http://www.w3.org/2000/svg">
<path d="M20.7894 18.6139C21.1284 18.178 21.0499 17.5497 20.6139 17.2106C20.178 16.8716 19.5497 16.9501 19.2106 17.3861L15.2359 22.4964L12.7035 19.9893C12.3111 19.6008 11.6779 19.604 11.2893 19.9965C10.9008 20.3889 10.904 21.0221 11.2965 21.4107L14.6298 24.7107C14.833 24.9118 15.1126 25.0164 15.398 24.9979C15.6833 24.9794 15.9471 24.8397 16.1227 24.6139L20.7894 18.6139Z" fill="#D1C29D"/>
<path fill-rule="evenodd" clip-rule="evenodd" d="M11 3C11 2.44772 10.5523 2 10 2C9.44772 2 9 2.44772 9 3V6H5C3.34315 6 2 7.34315 2 9V27C2 28.6569 3.34315 30 5 30H27C28.6569 30 30 28.6569 30 27V9C30 7.34315 28.6569 6 27 6H23V3C23 2.44772 22.5523 2 22 2C21.4477 2 21 2.44772 21 3V6H11V3ZM21 9V8H11V9C11 9.55228 10.5523 10 10 10C9.44772 10 9 9.55228 9 9V8H5C4.44772 8 4 8.44772 4 9V13.6H28V9C28 8.44772 27.5523 8 27 8H23V9C23 9.55228 22.5523 10 22 10C21.4477 10 21 9.55228 21 9ZM4 27V15.6H28V27C28 27.5523 27.5523 28 27 28H5C4.44772 28 4 27.5523 4 27Z" fill="#D1C29D"/>
</svg>
