<svg width="30" height="25" viewBox="0 0 30 25" fill="none" xmlns="http://www.w3.org/2000/svg">
<path d="M1.41937 3.88137C1.27709 3.79611 1.11473 3.75013 0.948871 3.74812C0.78301 3.7461 0.619584 3.78813 0.475274 3.86992C0.330963 3.9517 0.210934 4.07031 0.127437 4.21363C0.0439403 4.35696 -3.47844e-05 4.51987 2.06444e-08 4.68574V19.6857C2.06444e-08 20.9289 0.49386 22.1212 1.37294 23.0003C2.25201 23.8794 3.4443 24.3732 4.6875 24.3732H25.3125C26.5557 24.3732 27.748 23.8794 28.6271 23.0003C29.5061 22.1212 30 20.9289 30 19.6857V4.68574C30 4.51987 29.9561 4.35696 29.8726 4.21363C29.7891 4.07031 29.669 3.9517 29.5247 3.86992C29.3804 3.78813 29.217 3.7461 29.0511 3.74812C28.8853 3.75013 28.7229 3.79611 28.5806 3.88137L15 12.0301L1.41937 3.88137Z" fill="#B5AB3B"/>
<path d="M1.41937 3.88137C1.27709 3.79611 1.11473 3.75013 0.948871 3.74812C0.78301 3.7461 0.619584 3.78813 0.475274 3.86992C0.330963 3.9517 0.210934 4.07031 0.127437 4.21363C0.0439403 4.35696 -3.47844e-05 4.51987 2.06444e-08 4.68574V19.6857C2.06444e-08 20.9289 0.49386 22.1212 1.37294 23.0003C2.25201 23.8794 3.4443 24.3732 4.6875 24.3732H25.3125C26.5557 24.3732 27.748 23.8794 28.6271 23.0003C29.5061 22.1212 30 20.9289 30 19.6857V4.68574C30 4.51987 29.9561 4.35696 29.8726 4.21363C29.7891 4.07031 29.669 3.9517 29.5247 3.86992C29.3804 3.78813 29.217 3.7461 29.0511 3.74812C28.8853 3.75013 28.7229 3.79611 28.5806 3.88137L15 12.0301L1.41937 3.88137Z" fill="url(#paint0_linear_802_299)"/>
<path d="M1.41937 3.88137C1.27709 3.79611 1.11473 3.75013 0.948871 3.74812C0.78301 3.7461 0.619584 3.78813 0.475274 3.86992C0.330963 3.9517 0.210934 4.07031 0.127437 4.21363C0.0439403 4.35696 -3.47844e-05 4.51987 2.06444e-08 4.68574V19.6857C2.06444e-08 20.9289 0.49386 22.1212 1.37294 23.0003C2.25201 23.8794 3.4443 24.3732 4.6875 24.3732H25.3125C26.5557 24.3732 27.748 23.8794 28.6271 23.0003C29.5061 22.1212 30 20.9289 30 19.6857V4.68574C30 4.51987 29.9561 4.35696 29.8726 4.21363C29.7891 4.07031 29.669 3.9517 29.5247 3.86992C29.3804 3.78813 29.217 3.7461 29.0511 3.74812C28.8853 3.75013 28.7229 3.79611 28.5806 3.88137L15 12.0301L1.41937 3.88137Z" fill="url(#paint1_linear_802_299)"/>
<path d="M1.41937 3.88137C1.27709 3.79611 1.11473 3.75013 0.948871 3.74812C0.78301 3.7461 0.619584 3.78813 0.475274 3.86992C0.330963 3.9517 0.210934 4.07031 0.127437 4.21363C0.0439403 4.35696 -3.47844e-05 4.51987 2.06444e-08 4.68574V19.6857C2.06444e-08 20.9289 0.49386 22.1212 1.37294 23.0003C2.25201 23.8794 3.4443 24.3732 4.6875 24.3732H25.3125C26.5557 24.3732 27.748 23.8794 28.6271 23.0003C29.5061 22.1212 30 20.9289 30 19.6857V4.68574C30 4.51987 29.9561 4.35696 29.8726 4.21363C29.7891 4.07031 29.669 3.9517 29.5247 3.86992C29.3804 3.78813 29.217 3.7461 29.0511 3.74812C28.8853 3.75013 28.7229 3.79611 28.5806 3.88137L15 12.0301L1.41937 3.88137Z" fill="url(#paint2_linear_802_299)" fill-opacity="0.75"/>
<path d="M1.41937 3.88137C1.27709 3.79611 1.11473 3.75013 0.948871 3.74812C0.78301 3.7461 0.619584 3.78813 0.475274 3.86992C0.330963 3.9517 0.210934 4.07031 0.127437 4.21363C0.0439403 4.35696 -3.47844e-05 4.51987 2.06444e-08 4.68574V19.6857C2.06444e-08 20.9289 0.49386 22.1212 1.37294 23.0003C2.25201 23.8794 3.4443 24.3732 4.6875 24.3732H25.3125C26.5557 24.3732 27.748 23.8794 28.6271 23.0003C29.5061 22.1212 30 20.9289 30 19.6857V4.68574C30 4.51987 29.9561 4.35696 29.8726 4.21363C29.7891 4.07031 29.669 3.9517 29.5247 3.86992C29.3804 3.78813 29.217 3.7461 29.0511 3.74812C28.8853 3.75013 28.7229 3.79611 28.5806 3.88137L15 12.0301L1.41937 3.88137Z" fill="url(#paint3_linear_802_299)" fill-opacity="0.7"/>
<path d="M4.6875 0C3.4443 0 2.25201 0.49386 1.37294 1.37294C0.49386 2.25201 0 3.4443 0 4.6875V5.8125C8.71719e-05 5.97588 0.0428682 6.1364 0.124103 6.27815C0.205338 6.4199 0.322206 6.53796 0.463125 6.62063L14.5256 14.8706C14.6695 14.955 14.8332 14.9995 15 14.9995C15.1668 14.9995 15.3305 14.955 15.4744 14.8706L29.5369 6.62063C29.6778 6.53796 29.7947 6.4199 29.8759 6.27815C29.9571 6.1364 29.9999 5.97588 30 5.8125V4.6875C30 3.4443 29.5061 2.25201 28.6271 1.37294C27.748 0.49386 26.5557 0 25.3125 0H4.6875Z" fill="url(#paint4_linear_802_299)"/>
<defs>
<linearGradient id="paint0_linear_802_299" x1="18.8081" y1="7.79074" x2="27.9806" y2="23.6532" gradientUnits="userSpaceOnUse">
<stop offset="0.228" stop-color="#F0DC00" stop-opacity="0"/>
<stop offset="0.431" stop-color="#F0DC00"/>
</linearGradient>
<linearGradient id="paint1_linear_802_299" x1="10.7137" y1="5.91949" x2="0.51" y2="24.6245" gradientUnits="userSpaceOnUse">
<stop offset="0.228" stop-color="#F0DC00" stop-opacity="0"/>
<stop offset="0.431" stop-color="#F0DC00"/>
</linearGradient>
<linearGradient id="paint2_linear_802_299" x1="22.9106" y1="16.0539" x2="24.4819" y2="26.2314" gradientUnits="userSpaceOnUse">
<stop stop-color="#D1C21D" stop-opacity="0"/>
<stop offset="1" stop-color="#D1C21D"/>
</linearGradient>
<linearGradient id="paint3_linear_802_299" x1="19.6425" y1="6.28137" x2="22.5112" y2="27.017" gradientUnits="userSpaceOnUse">
<stop offset="0.533" stop-color="#FDFF6C" stop-opacity="0"/>
<stop offset="1" stop-color="#FDFF6C"/>
</linearGradient>
<linearGradient id="paint4_linear_802_299" x1="8.91187" y1="-4.67437" x2="19.4887" y2="20.8463" gradientUnits="userSpaceOnUse">
<stop stop-color="#F5FF6C"/>
<stop offset="0.462" stop-color="#FBFF29"/>
<stop offset="1" stop-color="#D1C21D"/>
</linearGradient>
</defs>
</svg>
