<svg width="32" height="32" viewBox="0 0 32 32" fill="none" xmlns="http://www.w3.org/2000/svg">
<path d="M8 17C7.44772 17 7 17.4477 7 18C7 18.5523 7.44772 19 8 19H16C16.5523 19 17 18.5523 17 18C17 17.4477 16.5523 17 16 17H8Z" fill="white"/>
<path d="M7 14C7 13.4477 7.44772 13 8 13H16C16.5523 13 17 13.4477 17 14C17 14.5523 16.5523 15 16 15H8C7.44772 15 7 14.5523 7 14Z" fill="white"/>
<path d="M8 9C7.44772 9 7 9.44772 7 10C7 10.5523 7.44772 11 8 11H16C16.5523 11 17 10.5523 17 10C17 9.44772 16.5523 9 16 9H8Z" fill="white"/>
<path fill-rule="evenodd" clip-rule="evenodd" d="M3 7C3 5.34315 4.34315 4 6 4H18C19.6569 4 21 5.34315 21 7H25C26.6569 7 28 8.34315 28 10V23C28 25.3149 26.5109 27.6922 24 27.9725V28H8C5.34864 28 3 25.6823 3 23V7ZM21 23V9H25C25.5523 9 26 9.44772 26 10V23C26 24.7235 24.8761 26 23.5 26C22.1239 26 21 24.7235 21 23ZM19 23C19 24.0552 19.3094 25.1234 19.884 26H8C6.44569 26 5 24.5703 5 23V7C5 6.44772 5.44772 6 6 6H18C18.5523 6 19 6.44772 19 7V23Z" fill="white"/>
</svg>
