<svg width="24" height="24" viewBox="0 0 24 24" fill="none" xmlns="http://www.w3.org/2000/svg">
<path fill-rule="evenodd" clip-rule="evenodd" d="M18.1965 4.00817C16.867 2.66004 14.6964 2.6449 13.3482 3.97436L5.34287 11.8688C3.28734 13.8959 3.26426 17.2055 5.29132 19.261C7.31837 21.3165 10.628 21.3396 12.6835 19.3126L19.5681 12.5233C19.9001 12.196 20.4345 12.1997 20.7619 12.5316C21.0892 12.8636 21.0855 13.398 20.7535 13.7254L13.8689 20.5146C11.1495 23.1964 6.771 23.1658 4.08926 20.4464C1.40752 17.727 1.43805 13.3485 4.15746 10.6668L12.1628 2.7723C14.1748 0.788156 17.4144 0.810746 19.3985 2.82276C21.3827 4.83477 21.3601 8.0743 19.348 10.0584L12.3033 17.0056C10.9987 18.2921 8.89816 18.2775 7.61162 16.9729C6.32508 15.6682 6.33973 13.5677 7.64434 12.2812L13.5683 6.43924C13.9003 6.1119 14.4347 6.11563 14.7621 6.44757C15.0894 6.77951 15.0857 7.31396 14.7537 7.6413L8.82975 13.4832C8.18902 14.1151 8.18182 15.1467 8.81368 15.7874C9.44554 16.4282 10.4772 16.4354 11.1179 15.8035L18.1626 8.85638C19.5108 7.52692 19.5259 5.3563 18.1965 4.00817Z" fill="white"/>
</svg>
