<svg width="24" height="24" viewBox="0 0 24 24" fill="none" xmlns="http://www.w3.org/2000/svg">
<path fill-rule="evenodd" clip-rule="evenodd" d="M12 12.75C14.0711 12.75 15.75 11.0711 15.75 9C15.75 6.92893 14.0711 5.25 12 5.25C9.92893 5.25 8.25 6.92893 8.25 9C8.25 11.0711 9.92893 12.75 12 12.75ZM12 11.25C13.2426 11.25 14.25 10.2426 14.25 9C14.25 7.75736 13.2426 6.75 12 6.75C10.7574 6.75 9.75 7.75736 9.75 9C9.75 10.2426 10.7574 11.25 12 11.25Z" fill="#D1C29D"/>
<path d="M7.5 17.25C7.5 16.8358 7.83579 16.5 8.25 16.5H15.75C16.1642 16.5 16.5 16.8358 16.5 17.25V18.75C16.5 19.1642 16.8358 19.5 17.25 19.5C17.6642 19.5 18 19.1642 18 18.75V17.25C18 16.0074 16.9926 15 15.75 15H8.25C7.00736 15 6 16.0074 6 17.25V18.75C6 19.1642 6.33579 19.5 6.75 19.5C7.16421 19.5 7.5 19.1642 7.5 18.75V17.25Z" fill="#D1C29D"/>
<path fill-rule="evenodd" clip-rule="evenodd" d="M5.25 1.5C4.00736 1.5 3 2.50736 3 3.75V20.25C3 21.4926 4.00736 22.5 5.25 22.5H18.75C19.9926 22.5 21 21.4926 21 20.25V3.75C21 2.50736 19.9926 1.5 18.75 1.5H5.25ZM18.75 3H5.25C4.83579 3 4.5 3.33579 4.5 3.75V20.25C4.5 20.6642 4.83579 21 5.25 21H18.75C19.1642 21 19.5 20.6642 19.5 20.25V3.75C19.5 3.33579 19.1642 3 18.75 3Z" fill="#D1C29D"/>
</svg>
