<svg width="32" height="32" viewBox="0 0 32 32" fill="none" xmlns="http://www.w3.org/2000/svg">
<path fill-rule="evenodd" clip-rule="evenodd" d="M12.0594 19.1952C13.7702 19.1952 15.157 17.8083 15.157 16.0976C15.157 14.3868 13.7702 13 12.0594 13C10.3487 13 8.96185 14.3868 8.96185 16.0976C8.96185 17.8083 10.3487 19.1952 12.0594 19.1952ZM12.0594 17.4809C12.8234 17.4809 13.4427 16.8615 13.4427 16.0976C13.4427 15.3336 12.8234 14.7143 12.0594 14.7143C11.2955 14.7143 10.6761 15.3336 10.6761 16.0976C10.6761 16.8615 11.2955 17.4809 12.0594 17.4809Z" fill="white"/>
<path d="M8.00001 23.5374C8.00001 22.9852 8.44773 22.5374 9.00002 22.5374H15.1188C15.6711 22.5374 16.1189 22.9852 16.1189 23.5374V24.4285C16.1189 24.9808 16.5666 25.4285 17.1189 25.4285C17.6712 25.4285 18.1189 24.9808 18.1189 24.4285V23.5374C18.1189 21.8806 16.7757 20.5374 15.1188 20.5374H9.00002C7.34315 20.5374 5.99999 21.8806 5.99999 23.5374V24.4285C5.99999 24.9808 6.44771 25.4285 7 25.4285C7.55229 25.4285 8.00001 24.9808 8.00001 24.4285V23.5374Z" fill="white"/>
<path d="M18 14.5C18 13.9477 18.4477 13.5 19 13.5H25.5C26.0523 13.5 26.5 13.9477 26.5 14.5C26.5 15.0523 26.0523 15.5 25.5 15.5H19C18.4477 15.5 18 15.0523 18 14.5Z" fill="white"/>
<path d="M19 17C18.4477 17 18 17.4477 18 18C18 18.5523 18.4477 19 19 19H22C22.5523 19 23 18.5523 23 18C23 17.4477 22.5523 17 22 17H19Z" fill="white"/>
<path fill-rule="evenodd" clip-rule="evenodd" d="M17 3C17 2.44772 16.5523 2 16 2C15.4477 2 15 2.44772 15 3V7H5C3.34315 7 2 8.34315 2 10V27C2 28.6569 3.34315 30 5 30H27C28.6569 30 30 28.6569 30 27V10C30 8.34315 28.6569 7 27 7H17V3ZM15 9V10C15 10.5523 15.4477 11 16 11C16.5523 11 17 10.5523 17 10V9H27C27.5523 9 28 9.44772 28 10V27C28 27.5523 27.5523 28 27 28H5C4.44772 28 4 27.5523 4 27V10C4 9.44772 4.44772 9 5 9H15Z" fill="white"/>
</svg>
