<svg width="32" height="32" viewBox="0 0 32 32" fill="none" xmlns="http://www.w3.org/2000/svg">
<path d="M14 7.99744C13.4477 7.99744 13 8.44515 13 8.99744C13 9.54972 13.4477 9.99744 14 9.99744H18C18.5523 9.99744 19 9.54972 19 8.99744C19 8.44515 18.5523 7.99744 18 7.99744H14Z" fill="white"/>
<path fill-rule="evenodd" clip-rule="evenodd" d="M5 18.9974V14.9974H4.62434C3.17496 14.9974 2 13.8225 2 12.3731C2 11.4772 2.45705 10.6432 3.2122 10.1611L14.3857 3.02798C15.3702 2.39953 16.6298 2.39953 17.6143 3.02798L28.7878 10.1611C29.543 10.6432 30 11.4772 30 12.3731C30 13.8225 28.825 14.9974 27.3757 14.9974H27V27.9974H29C29.5523 27.9974 30 28.4452 30 28.9974C30 29.5497 29.5523 29.9974 29 29.9974H12C11.4477 29.9974 11 29.5497 11 28.9974C11 28.4452 11.4477 27.9974 12 27.9974H19V14.9974H13V18.9974C13 19.5497 12.5523 19.9974 12 19.9974C11.4477 19.9974 11 19.5497 11 18.9974V14.9974H7V18.9974C7 19.5497 6.55228 19.9974 6 19.9974C5.44772 19.9974 5 19.5497 5 18.9974ZM4.62434 12.9974H27.3757C27.7205 12.9974 28 12.7179 28 12.3731C28 12.16 27.8913 11.9615 27.7116 11.8468L16.5381 4.71375C16.2099 4.50427 15.7901 4.50427 15.4619 4.71375L4.28839 11.8468C4.10873 11.9615 4 12.16 4 12.3731C4 12.7179 4.27953 12.9974 4.62434 12.9974ZM21 14.9974H25V27.9974H21V14.9974Z" fill="white"/>
<path d="M5.23178 22.3573C5.58534 21.933 6.21591 21.8757 6.64018 22.2292L10.2402 25.2292C10.4682 25.4192 10.6 25.7007 10.6 25.9974C10.6 26.2942 10.4682 26.5757 10.2402 26.7657L6.64018 29.7657C6.21591 30.1192 5.58534 30.0619 5.23178 29.6376C4.87821 29.2133 4.93554 28.5828 5.35982 28.2292L6.83795 26.9974L3 26.9974C2.44772 26.9974 2 26.5497 2 25.9974C2 25.4452 2.44772 24.9974 3 24.9974L6.83795 24.9974L5.35982 23.7657C4.93554 23.4121 4.87821 22.7815 5.23178 22.3573Z" fill="white"/>
</svg>
