<svg width="22" height="22" viewBox="0 0 22 22" fill="none" xmlns="http://www.w3.org/2000/svg">
<path d="M13.7957 4.58268C14.6911 4.75737 15.5139 5.19525 16.159 5.84029C16.804 6.48533 17.2419 7.30818 17.4166 8.20352M13.7957 0.916016C15.6559 1.12267 17.3905 1.95568 18.7148 3.27827C20.039 4.60087 20.8742 6.33444 21.0832 8.19435M20.1666 15.5093V18.2593C20.1676 18.5146 20.1153 18.7673 20.013 19.0013C19.9108 19.2352 19.7608 19.4451 19.5726 19.6177C19.3845 19.7903 19.1624 19.9217 18.9206 20.0035C18.6787 20.0853 18.4225 20.1157 18.1682 20.0927C15.3475 19.7862 12.638 18.8223 10.2574 17.2785C8.04257 15.8711 6.16479 13.9933 4.7574 11.7785C3.20821 9.38712 2.24412 6.66443 1.94323 3.83102C1.92032 3.57753 1.95045 3.32205 2.03169 3.08084C2.11293 2.83963 2.2435 2.61798 2.4151 2.43C2.5867 2.24202 2.79555 2.09183 3.02837 1.98899C3.26119 1.88616 3.51288 1.83292 3.7674 1.83268H6.5174C6.96226 1.8283 7.39354 1.98584 7.73085 2.27592C8.06815 2.566 8.28847 2.96884 8.35073 3.40935C8.4668 4.28941 8.68206 5.15352 8.9924 5.98518C9.11573 6.31328 9.14242 6.66985 9.06931 7.01266C8.9962 7.35546 8.82636 7.67012 8.5799 7.91935L7.41573 9.08352C8.72066 11.3784 10.6208 13.2786 12.9157 14.5835L14.0799 13.4193C14.3291 13.1729 14.6438 13.003 14.9866 12.9299C15.3294 12.8568 15.686 12.8835 16.0141 13.0068C16.8457 13.3172 17.7098 13.5324 18.5899 13.6485C19.0352 13.7113 19.4418 13.9356 19.7326 14.2787C20.0233 14.6218 20.1777 15.0598 20.1666 15.5093Z" stroke="#184B50" stroke-width="1.83333" stroke-linecap="round" stroke-linejoin="round"/>
</svg>
