<svg width="23" height="23" viewBox="0 0 23 23" fill="none" xmlns="http://www.w3.org/2000/svg">
<path fill-rule="evenodd" clip-rule="evenodd" d="M3.14554 4.9514C3.17969 4.31586 3.56942 3.84674 3.97532 3.56968L5.9999 2.18776C7.14412 1.40675 8.70484 1.70119 9.48585 2.84541L11.3527 5.58047C12.2172 6.8469 11.8913 8.57429 10.6248 9.43871C10.6051 9.4522 10.6 9.47914 10.6135 9.4989L13.0172 13.0205C13.0307 13.0403 13.0577 13.0453 13.0774 13.0319C14.3438 12.1674 16.0712 12.4933 16.9357 13.7597L18.6737 16.3061C19.431 17.4156 19.1455 18.9289 18.0361 19.6862L16.0521 21.0404C15.5378 21.3915 14.8489 21.5244 14.207 21.2607C11.2252 20.0357 8.4209 16.9066 6.40983 13.7145C5.39425 12.1025 4.55805 10.4385 3.98626 8.9294C3.422 7.44016 3.08758 6.03035 3.14554 4.9514ZM4.78572 4.75697C4.62172 4.86891 4.58384 4.97506 4.58097 5.02852C4.53919 5.80631 4.78902 6.99093 5.3305 8.42008C5.86445 9.82933 6.65548 11.4077 7.62608 12.9483C9.58739 16.0614 12.1913 18.8785 14.7533 19.931C14.8839 19.9846 15.0662 19.9729 15.2417 19.8531L17.2256 18.4989C17.6794 18.1892 17.7962 17.5703 17.4865 17.1165L15.7484 14.5701C15.3315 13.9594 14.4985 13.8023 13.8878 14.2191C13.2124 14.6802 12.291 14.5064 11.83 13.8309L9.42621 10.3093C8.96515 9.63383 9.13896 8.71249 9.81444 8.25142C10.4251 7.83458 10.5823 7.00158 10.1654 6.39088L8.29857 3.65582C7.96513 3.16731 7.29881 3.04161 6.8103 3.37505L4.78572 4.75697Z" fill="white"/>
</svg>
