<svg width="32" height="32" viewBox="0 0 32 32" fill="none" xmlns="http://www.w3.org/2000/svg">
<path d="M20.7893 13.6133C21.1284 13.1774 21.0498 12.5491 20.6139 12.21C20.1779 11.8709 19.5497 11.9495 19.2106 12.3854L15.2359 17.4958L12.7035 14.9887C12.311 14.6002 11.6779 14.6033 11.2893 14.9958C10.9007 15.3883 10.9039 16.0215 11.2964 16.41L14.6297 19.71C14.833 19.9112 15.1126 20.0158 15.3979 19.9973C15.6833 19.9788 15.9471 19.839 16.1226 19.6133L20.7893 13.6133Z" fill="white"/>
<path fill-rule="evenodd" clip-rule="evenodd" d="M17.4855 2.51656C16.5318 2.1351 15.468 2.1351 14.5143 2.51657L6.78572 5.60802C5.72622 6.03183 4.98504 7.02691 4.92694 8.19152C4.86703 9.39241 4.80062 11.3149 4.8529 13.3056C4.90459 15.2737 5.07354 17.3968 5.51728 18.9563C6.21927 21.4233 7.95172 23.63 9.70252 25.362C11.4685 27.109 13.3426 28.4597 14.4573 29.2034C15.3948 29.8288 16.605 29.8288 17.5425 29.2034C18.6572 28.4597 20.5312 27.109 22.2972 25.362C24.0481 23.63 25.7805 21.4233 26.4825 18.9563C26.9262 17.3968 27.0952 15.2737 27.1469 13.3056C27.1992 11.3149 27.1328 9.39244 27.0729 8.19154C27.0148 7.02692 26.2736 6.03182 25.2141 5.60802L17.4855 2.51656ZM15.2571 4.37352C15.7339 4.18279 16.2658 4.18279 16.7427 4.37352L24.4713 7.46497C24.8284 7.60782 25.0574 7.93194 25.0754 8.29118C25.1339 9.46549 25.198 11.3326 25.1476 13.2531C25.0965 15.1964 24.9295 17.1062 24.5589 18.4089C23.9958 20.3878 22.5473 22.3013 20.8907 23.9401C19.2493 25.5639 17.4893 26.8347 16.4326 27.5396C16.1671 27.7167 15.8326 27.7167 15.5672 27.5396C14.5105 26.8347 12.7505 25.5639 11.1091 23.9401C9.45243 22.3013 8.00402 20.3878 7.44091 18.4089C7.07024 17.1062 6.90325 15.1964 6.85221 13.2531C6.80177 11.3326 6.86587 9.46548 6.92446 8.29118C6.94238 7.93194 7.17139 7.60782 7.52851 7.46497L15.2571 4.37352Z" fill="white"/>
</svg>
