<svg width="32" height="32" viewBox="0 0 32 32" fill="none" xmlns="http://www.w3.org/2000/svg">
<path fill-rule="evenodd" clip-rule="evenodd" d="M14.2601 8.98889C14.1744 8.99625 14.0877 9 14.0001 9C12.3433 9 11.0001 7.65685 11.0001 6C11.0001 4.34315 12.3433 3 14.0001 3C15.657 3 17.0001 4.34315 17.0001 6C17.0001 6.0876 16.9964 6.17432 16.989 6.26001C17.4613 6.09167 17.97 6 18.5001 6C20.9854 6 23.0001 8.01472 23.0001 10.5C23.0001 12.9853 20.9854 15 18.5001 15C16.0148 15 14.0001 12.9853 14.0001 10.5C14.0001 9.96989 14.0918 9.46119 14.2601 8.98889ZM15.0001 6C15.0001 6.55228 14.5524 7 14.0001 7C13.4478 7 13.0001 6.55228 13.0001 6C13.0001 5.44772 13.4478 5 14.0001 5C14.5524 5 15.0001 5.44772 15.0001 6ZM18.5001 13C19.8808 13 21.0001 11.8807 21.0001 10.5C21.0001 9.11929 19.8808 8 18.5001 8C17.1194 8 16.0001 9.11929 16.0001 10.5C16.0001 11.8807 17.1194 13 18.5001 13Z" fill="white"/>
<path d="M3.15039 14.0677C2.59811 14.0677 2.15039 14.5154 2.15039 15.0677C2.15039 15.62 2.59811 16.0677 3.15039 16.0677H8.62214C8.93122 16.0677 9.23609 16.1393 9.51282 16.277L15.8103 19.4092C16.3372 19.6713 16.5181 20.3339 16.1976 20.8275C15.9509 21.2072 15.4772 21.3698 15.0493 21.2216L11.0269 19.8282C10.5051 19.6475 9.93547 19.924 9.7547 20.4458C9.57393 20.9677 9.85044 21.5373 10.3723 21.7181L14.3947 23.1114C15.6914 23.5606 17.1273 23.0677 17.8748 21.9169C18.0513 21.6452 18.1777 21.3565 18.2567 21.0613L26.0362 20.1031C26.7634 20.0136 27.4654 20.4034 27.7738 21.068C28.1906 21.9665 27.7479 23.0292 26.8163 23.3659L15.1904 27.5682C14.6027 27.7806 13.9494 27.7061 13.4246 27.3667L8.55466 24.2178C7.90754 23.7994 7.15334 23.5768 6.38273 23.5768H3.15039C2.59811 23.5768 2.15039 24.0245 2.15039 24.5768C2.15039 25.1291 2.59811 25.5768 3.15039 25.5768H6.38273C6.76804 25.5768 7.14514 25.6881 7.4687 25.8973L12.3387 29.0462C13.3883 29.7249 14.6948 29.8739 15.8703 29.4491L27.4962 25.2468C29.5314 24.5112 30.4988 22.1894 29.588 20.2263C28.9142 18.7741 27.3806 17.9224 25.7917 18.1181L18.094 19.0662C17.8225 18.461 17.3477 17.9402 16.701 17.6185L10.4035 14.4862C9.85003 14.211 9.24029 14.0677 8.62214 14.0677H3.15039Z" fill="white"/>
</svg>
