<svg width="24" height="24" viewBox="0 0 24 24" fill="none" xmlns="http://www.w3.org/2000/svg">
<path fill-rule="evenodd" clip-rule="evenodd" d="M9.23675 5.32918C9.08054 5.01675 8.99921 4.67225 8.99921 4.32295V3.75C8.99921 2.50736 10.0066 1.5 11.2492 1.5H12.7492C13.9919 1.5 14.9992 2.50736 14.9992 3.75V4.32295C14.9992 4.67225 14.9179 5.01675 14.7617 5.32918L13.42 4.65836C13.4721 4.55422 13.4992 4.43938 13.4992 4.32295V3.75C13.4992 3.33579 13.1634 3 12.7492 3H11.2492C10.835 3 10.4992 3.33579 10.4992 3.75V4.32295C10.4992 4.43938 10.5263 4.55422 10.5784 4.65836L11.1364 5.77434C11.2096 5.92075 11.2329 6.08709 11.2027 6.24797L9.23588 16.7377C9.08921 17.52 9.36673 18.3216 9.96571 18.8457L11.5053 20.1929C11.7881 20.4403 12.2103 20.4403 12.4931 20.1929L14.0327 18.8457C14.6317 18.3216 14.9092 17.52 14.7625 16.7377L12.7957 6.24797C12.7655 6.08709 12.7888 5.92075 12.862 5.77434L13.42 4.65836L14.7617 5.32918L14.3165 6.21951L16.2368 16.4613C16.4813 17.7651 16.0188 19.101 15.0205 19.9746L13.4808 21.3217C12.6325 22.064 11.3659 22.064 10.5176 21.3217L8.97795 19.9746C7.97965 19.101 7.51711 17.7651 7.76158 16.4613L9.68191 6.21951L9.23675 5.32918Z" fill="white"/>
</svg>
