<svg width="24" height="24" viewBox="0 0 24 24" fill="none" xmlns="http://www.w3.org/2000/svg">
<path fill-rule="evenodd" clip-rule="evenodd" d="M8.30095 18.3692L6.41437 18.6328C5.2968 18.7889 4.35568 17.8023 4.56454 16.6933L4.89953 14.9146C5.01261 14.3141 5.30633 13.7625 5.7414 13.3336L16.6146 2.61267C17.5026 1.73716 18.9332 1.75079 19.8043 2.64306L20.8778 3.7426C21.7453 4.63117 21.7289 6.05456 20.8411 6.92289L9.98349 17.5427C9.52532 17.9908 8.93567 18.2805 8.30095 18.3692L8.09337 16.8836C8.41073 16.8392 8.70555 16.6944 8.93464 16.4704L9.88883 15.5371L7.80767 13.4028L6.79455 14.4017C6.57701 14.6162 6.43015 14.892 6.37361 15.1922L6.03862 16.9709C6.01964 17.0717 6.10519 17.1614 6.20679 17.1472L8.09337 16.8836L8.30095 18.3692ZM8.8758 12.3496L10.9612 14.4882L19.7923 5.85055C20.0882 5.56111 20.0937 5.08665 19.8045 4.79045L18.731 3.69092C18.4407 3.39349 17.9638 3.38895 17.6678 3.68079L8.8758 12.3496Z" fill="white"/>
<path d="M1.5 21.75C1.5 21.3358 1.83579 21 2.25 21H21.75C22.1642 21 22.5 21.3358 22.5 21.75C22.5 22.1642 22.1642 22.5 21.75 22.5H2.25C1.83579 22.5 1.5 22.1642 1.5 21.75Z" fill="white"/>
</svg>
