<svg width="24" height="24" viewBox="0 0 24 24" fill="none" xmlns="http://www.w3.org/2000/svg">
<path d="M3 3.75C3 3.33579 3.33579 3 3.75 3H6.75C7.16421 3 7.5 2.66421 7.5 2.25C7.5 1.83579 7.16421 1.5 6.75 1.5H3.75C2.50736 1.5 1.5 2.50736 1.5 3.75V6.75C1.5 7.16421 1.83579 7.5 2.25 7.5C2.66421 7.5 3 7.16421 3 6.75V3.75Z" fill="white"/>
<path d="M3.75 21C3.33579 21 3 20.6642 3 20.25V17.25C3 16.8358 2.66421 16.5 2.25 16.5C1.83579 16.5 1.5 16.8358 1.5 17.25V20.25C1.5 21.4926 2.50736 22.5 3.75 22.5H6.75C7.16421 22.5 7.5 22.1642 7.5 21.75C7.5 21.3358 7.16421 21 6.75 21H3.75Z" fill="white"/>
<path d="M20.25 21C20.6642 21 21 20.6642 21 20.25V17.25C21 16.8358 21.3358 16.5 21.75 16.5C22.1642 16.5 22.5 16.8358 22.5 17.25V20.25C22.5 21.4926 21.4926 22.5 20.25 22.5H17.25C16.8358 22.5 16.5 22.1642 16.5 21.75C16.5 21.3358 16.8358 21 17.25 21H20.25Z" fill="white"/>
<path d="M20.25 3C20.6642 3 21 3.33579 21 3.75V6.75C21 7.16421 21.3358 7.5 21.75 7.5C22.1642 7.5 22.5 7.16421 22.5 6.75V3.75C22.5 2.50736 21.4926 1.5 20.25 1.5H17.25C16.8358 1.5 16.5 1.83579 16.5 2.25C16.5 2.66421 16.8358 3 17.25 3H20.25Z" fill="white"/>
<path fill-rule="evenodd" clip-rule="evenodd" d="M20.25 11.25H18.7088C18.3629 8.12129 15.8787 5.63706 12.75 5.2912V3.75C12.75 3.33579 12.4142 3 12 3C11.5858 3 11.25 3.33579 11.25 3.75V5.2912C8.12129 5.63706 5.63706 8.12129 5.2912 11.25H3.75C3.33579 11.25 3 11.5858 3 12C3 12.4142 3.33579 12.75 3.75 12.75H5.2912C5.63706 15.8787 8.12129 18.3629 11.25 18.7088V20.25C11.25 20.6642 11.5858 21 12 21C12.4142 21 12.75 20.6642 12.75 20.25V18.7088C15.8787 18.3629 18.3629 15.8787 18.7088 12.75H20.25C20.6642 12.75 21 12.4142 21 12C21 11.5858 20.6642 11.25 20.25 11.25ZM12.75 17.1968C15.0493 16.8679 16.8679 15.0493 17.1968 12.75H12.75V17.1968ZM12.75 11.25H17.1968C16.8679 8.95073 15.0493 7.13205 12.75 6.80317V11.25ZM11.25 6.80317V11.25H6.80317C7.13205 8.95073 8.95073 7.13205 11.25 6.80317ZM11.25 12.75V17.1968C8.95073 16.8679 7.13205 15.0493 6.80317 12.75H11.25Z" fill="white"/>
</svg>
