<svg width="30" height="30" viewBox="0 0 30 30" fill="none" xmlns="http://www.w3.org/2000/svg">
<g clip-path="url(#clip0_706_3873)">
<path d="M15 0C11.0227 0 7.20469 1.58133 4.39453 4.39336C1.5815 7.20652 0.000804958 11.0217 0 15C0 18.9766 1.58203 22.7946 4.39453 25.6066C7.20469 28.4187 11.0227 30 15 30C18.9773 30 22.7953 28.4187 25.6055 25.6066C28.418 22.7946 30 18.9766 30 15C30 11.0234 28.418 7.20539 25.6055 4.39336C22.7953 1.58133 18.9773 0 15 0Z" fill="url(#paint0_linear_706_3873)"/>
<path d="M6.78956 14.843C11.163 12.938 14.0786 11.6821 15.5364 11.0752C19.7036 9.34247 20.5685 9.04153 21.1333 9.03134C21.2575 9.02935 21.5341 9.06005 21.7146 9.20595C21.8646 9.32899 21.9067 9.4954 21.9278 9.61224C21.9466 9.72896 21.9724 9.99497 21.9513 10.2026C21.7263 12.5745 20.7489 18.3303 20.2521 20.9869C20.0435 22.111 19.6286 22.4879 19.2278 22.5247C18.356 22.6048 17.695 21.949 16.8513 21.3961C15.5317 20.5306 14.7864 19.992 13.5044 19.1475C12.0232 18.1716 12.9841 17.6351 13.8278 16.7586C14.0482 16.5291 17.8872 13.0381 17.9599 12.7215C17.9692 12.6818 17.9786 12.5342 17.8896 12.4564C17.8028 12.3783 17.6739 12.405 17.5802 12.4261C17.4466 12.4561 15.3396 13.8502 11.2521 16.6081C10.6544 17.0192 10.113 17.2196 9.6255 17.209C9.09112 17.1975 8.05987 16.9062 7.29347 16.6573C6.35597 16.3519 5.60831 16.1904 5.67394 15.6718C5.70675 15.4018 6.0794 15.1254 6.78956 14.843Z" fill="white"/>
</g>
<defs>
<linearGradient id="paint0_linear_706_3873" x1="1500" y1="0" x2="1500" y2="3000" gradientUnits="userSpaceOnUse">
<stop stop-color="#2AABEE"/>
<stop offset="1" stop-color="#229ED9"/>
</linearGradient>
<clipPath id="clip0_706_3873">
<rect width="30" height="30" fill="white"/>
</clipPath>
</defs>
</svg>
